<?xml version="1.0" encoding="UTF-8"?>
<!-- Generator: Adobe Illustrator 16.0.0, SVG Export Plug-In . SVG Version: 6.00 Build 0)  -->
<!DOCTYPE svg PUBLIC "-//W3C//DTD SVG 1.1//EN" "http://www.w3.org/Graphics/SVG/1.1/DTD/svg11.dtd">
<svg version="1.1" id="Layer_1" xmlns="http://www.w3.org/2000/svg" xmlns:xlink="http://www.w3.org/1999/xlink" x="0px" y="0px" width="260px" height="260px" viewBox="0 0 260 260" enable-background="new 0 0 260 260" xml:space="preserve">
<g>
	<path fill="#3FB4E5" d="M112,140.5h-10c-1.104,0-2,0.896-2,2s0.896,2,2,2h10c1.104,0,2-0.896,2-2S113.104,140.5,112,140.5   L112,140.5z M92,140.5H82l0,0c-1.104,0-2,0.896-2,2s0.896,2,2,2h10c1.104,0,2-0.896,2-2S93.104,140.5,92,140.5L92,140.5z M93,191.5   H83l0,0c-1.104,0-2,0.896-2,2s0.896,2,2,2h10c1.104,0,2-0.896,2-2S94.104,191.5,93,191.5L93,191.5z M77.013,148.572   c-1.041,0-2.169,0.806-2.243,1.86c-0.01,0.146-0.27,0.294-0.27,0.442l0,0c0,0.006,0,0.012,0,0.018c0,0,0,0,0,0.001   c0,0.003,0,0.005,0,0.008l0,0c0,0.003,0,0.006,0,0.009c0,0.001,0,0.001,0,0.001c0,0.003,0,0.005,0,0.008v0.001   c0,0.003,0,0.006,0,0.009l0,0c0,0.003,0,0.005,0,0.008c0,0.001,0,0.002,0,0.002c0,0.002,0,0.005,0,0.007c0,0,0,0.001,0,0.002   c0,0.002,0,0.005,0,0.008v0.001c0,0.002,0,0.005,0,0.007c0,0.001,0,0.002,0,0.003c0,0.002,0,0.004,0,0.007v0.001   c0,0.003,0,0.005,0,0.008c0,0.001,0,0.001,0,0.002c0,0.002,0,0.004,0,0.007c0,0,0,0.001,0,0.002c0,0.003,0,0.005,0,0.008l0,0   v10.433c0,1.104,0.896,2,2,2s2-0.896,2-2V151c0-0.097,0.253-0.192,0.26-0.288c0.077-1.102-0.628-2.058-1.73-2.135   C76.982,148.574,77.06,148.572,77.013,148.572L77.013,148.572z M76.5,171.433c-1.104,0-2,0.895-2,2v11c0,1.104,0.896,2,2,2   s2-0.896,2-2v-11C78.5,172.327,77.604,171.433,76.5,171.433L76.5,171.433z M112.864,191.5h-10c-1.104,0-2,0.896-2,2s0.896,2,2,2h10   c1.104,0,2-0.896,2-2S113.969,191.5,112.864,191.5L112.864,191.5z"/>
	<path fill="#E73C50" d="M141.5,124.5c0,1.104-0.896,2-2,2h-63c-1.104,0-2-0.896-2-2v-2c0-1.104,0.896-2,2-2h63c1.104,0,2,0.896,2,2   V124.5z"/>
	<path fill="#E73C50" d="M157.5,111.5c0,1.104-0.896,2-2,2h-79c-1.104,0-2-0.896-2-2v-2c0-1.104,0.896-2,2-2h79c1.104,0,2,0.896,2,2   V111.5z"/>
	<g>
		<path fill="#E73C50" d="M77.5,61c-1.1,0-2,0.9-2,2v34c0,1.1,0.9,2,2,2h16c1.1,0,2.45,0,3,0s1.9,0,3,0h57c1.1,0,2-0.9,2-2V67.738    c0-1.1,0-2.225,0-2.5s0-1.341,0-2.369c0-1.028-0.9-1.869-2-1.869H77.5z M154.5,67.369c0,0.203,0,0.269,0,1.369V93c0,1.1-0.9,2-2,2    h-53c-1.1,0-2.45,0-3,0s-1.9,0-3,0h-12c-1.1,0-2-0.9-2-2V67c0-1.1,0.9-2,2-2h71C153.6,65,154.5,65.906,154.5,67.369z"/>
		<polygon fill="#E73C50" points="139.351,76.53 133.605,77.558 128.633,71.573 112.555,86.121 103.944,82.956 90.45,92.5     147.005,92.5   "/>
		<circle fill="#E73C50" cx="91.327" cy="75.159" r="4.173"/>
	</g>
	<g>
		<path fill="#E73C50" d="M155,155.746c-6.491,0-11.754,5.264-11.754,11.754c0,6.492,5.263,11.754,11.754,11.754    s11.754-5.262,11.754-11.754C166.754,161.01,161.491,155.746,155,155.746z M150.456,173.547v-12.074l12.08,6.047L150.456,173.547z    "/>
	</g>
	<g>
		<path fill="#25336C" d="M167.5,200.246c0,4.125-3.792,9.254-7.925,9.254H73.914c-4.132,0-9.414-5.129-9.414-9.254v-47.661v-92.83    c0-4.127,5.282-8.255,9.414-8.255h85.661c4.133,0,7.925,4.128,7.925,8.255V142.5h10V62.755c0-12.381-8.545-22.255-20.925-22.255    H76.914c-12.38,0-23.414,9.875-23.414,22.255v89.83v44.661c0,12.379,11.034,23.254,23.414,23.254h79.661    c12.38,0,20.925-10.875,20.925-23.254V193.5h-10V200.246z"/>
	</g>
	<g>
		<path fill="#3FB4E5" d="M181.981,193.5h-53.755c-3.991,0-7.726-3.735-7.726-7.726v-36.549c0-3.991,3.735-6.726,7.726-6.726h57.547    c3.991,0,6.727,2.734,6.727,6.726v3.274h2v-3.274c0-5.087-3.639-8.726-8.727-8.726h-57.547c-5.087,0-9.726,3.639-9.726,8.726    v36.549c0,5.087,4.639,9.726,9.726,9.726h55.111l-1.149-1.498L181.981,193.5z"/>
		<path fill="#3FB4E5" d="M185.773,142.5h-57.547c-3.991,0-7.726,2.734-7.726,6.726v36.549c0,3.99,3.735,7.726,7.726,7.726h53.755    l-0.822-2h-52.933c-2.882,0-5.726-2.844-5.726-5.726v-36.549c0-2.882,2.844-4.726,5.726-4.726h57.547    c2.883,0,4.727,1.844,4.727,4.726v3.274h2v-3.274C192.5,145.234,189.765,142.5,185.773,142.5z"/>
	</g>
	<g>
		<g>
			<path fill="#25336C" d="M192.717,200.4c-7.765,0-14.08-6.316-14.08-14.08v-26.24c0-2.469,2.01-4.48,4.479-4.48     s4.479,2.012,4.479,4.48v11.312c0.583-0.275,1.233-0.432,1.921-0.432c1.792,0,3.342,1.057,4.058,2.582     c0.682-0.42,1.484-0.662,2.342-0.662c1.793,0,3.343,1.057,4.059,2.582c0.682-0.42,1.483-0.662,2.342-0.662     c2.47,0,4.479,2.01,4.479,4.48v7.039C206.796,194.084,200.48,200.4,192.717,200.4z M183.116,158.161     c-1.059,0-1.92,0.86-1.92,1.919v26.24c0,6.354,5.168,11.521,11.521,11.521c6.352,0,11.52-5.167,11.52-11.521v-7.039     c0-1.059-0.861-1.92-1.92-1.92s-1.92,0.861-1.92,1.92c0,0.705-0.574,1.279-1.28,1.279s-1.28-0.574-1.28-1.279v-1.92     c0-1.06-0.861-1.92-1.92-1.92s-1.92,0.86-1.92,1.92c0,0.706-0.573,1.279-1.279,1.279c-0.707,0-1.28-0.573-1.28-1.279v-1.92     c0-1.061-0.861-1.921-1.92-1.921c-1.06,0-1.921,0.86-1.921,1.921c0,0.705-0.573,1.279-1.279,1.279s-1.28-0.574-1.28-1.279V160.08     C185.036,159.021,184.175,158.161,183.116,158.161z"/>
			<path fill="#25336C" d="M197.459,160.982l-3.2,3.201c-0.25,0.25-0.576,0.377-0.902,0.377s-0.652-0.127-0.902-0.377     c-0.506-0.499-0.506-1.305,0-1.805l1.017-1.018h-2.675c-0.703,0-1.279-0.576-1.279-1.281c0-0.703,0.576-1.279,1.279-1.279h2.675     l-1.017-1.018c-0.506-0.498-0.506-1.305,0-1.805c0.499-0.505,1.306-0.505,1.805,0l3.2,3.199     C197.965,159.678,197.965,160.484,197.459,160.982z"/>
			<path fill="#25336C" d="M176.717,160.08c0,0.705-0.576,1.281-1.28,1.281h-2.676l1.019,1.018c0.505,0.5,0.505,1.306,0,1.805     c-0.25,0.25-0.577,0.377-0.903,0.377s-0.652-0.127-0.902-0.377l-3.2-3.201c-0.506-0.498-0.506-1.305,0-1.805l3.2-3.199     c0.499-0.505,1.306-0.505,1.806,0c0.505,0.5,0.505,1.307,0,1.805l-1.019,1.018h2.676     C176.141,158.801,176.717,159.377,176.717,160.08z"/>
		</g>
	</g>
</g>
</svg>