<?xml version="1.0" encoding="UTF-8"?>
<!-- Generator: Adobe Illustrator 16.0.0, SVG Export Plug-In . SVG Version: 6.00 Build 0)  -->
<!DOCTYPE svg PUBLIC "-//W3C//DTD SVG 1.1//EN" "http://www.w3.org/Graphics/SVG/1.1/DTD/svg11.dtd">
<svg version="1.1" id="Layer_1" xmlns="http://www.w3.org/2000/svg" xmlns:xlink="http://www.w3.org/1999/xlink" x="0px" y="0px" width="260px" height="260px" viewBox="0 0 260 260" enable-background="new 0 0 260 260" xml:space="preserve">
<g>
	<path fill="#25336C" d="M198.5,43.06c0-7.489-6.071-13.56-13.56-13.56H76.06c-7.489,0-13.56,6.071-13.56,13.56V196.94   c0,7.488,6.071,13.56,13.56,13.56H184.94c7.488,0,13.56-6.071,13.56-13.56V43.06z M130.235,202.02   c-2.186,0-3.955-1.771-3.955-3.955c0-2.184,1.77-3.955,3.955-3.955c2.185,0,3.954,1.771,3.954,3.955   C134.189,200.249,132.42,202.02,130.235,202.02z M186.5,185.07c0,1.245-0.214,3.43-1.46,3.43H76.561   c-1.246,0-3.061-2.185-3.061-3.43V41.56c0-1.247,1.814-1.06,3.061-1.06H185.04c1.246,0,1.46-0.188,1.46,1.06V185.07z"/>
	<g>
		<g>
			<g>
				<path fill="none" d="M187,43.51c0-1.248-1.012-2.01-2.26-2.01H76.26c-1.248,0-2.26,0.887-2.26,2.135"/>
				<g>
					<path fill="none" d="M187,42.81c0-1.247-0.714-1.31-1.96-1.31H76.561C75.314,41.5,74,41.688,74,42.935"/>
				</g>
			</g>
		</g>
	</g>
	<path fill="#E73C50" d="M124.5,86.5c0,2.209-1.791,4-4,4h-33c-2.209,0-4-1.791-4-4v-32c0-2.209,1.791-4,4-4h33c2.209,0,4,1.791,4,4   V86.5z"/>
	<path fill="#E73C50" d="M176.5,124.5c0,2.209-1.791,4-4,4h-85c-2.209,0-4-1.791-4-4v-20c0-2.209,1.791-4,4-4h85   c2.209,0,4,1.791,4,4V124.5z"/>
	<path fill="#E73C50" d="M176.5,86.5c0,2.209-1.791,4-4,4h-33c-2.209,0-4-1.791-4-4v-32c0-2.209,1.791-4,4-4h33c2.209,0,4,1.791,4,4   V86.5z"/>
	<path fill="#E73C50" d="M124.5,174.5c0,2.209-1.791,4-4,4h-33c-2.209,0-4-1.791-4-4v-32c0-2.209,1.791-4,4-4h33   c2.209,0,4,1.791,4,4V174.5z"/>
	<path fill="#E73C50" d="M176.5,174.5c0,2.209-1.791,4-4,4h-33c-2.209,0-4-1.791-4-4v-32c0-2.209,1.791-4,4-4h33   c2.209,0,4,1.791,4,4V174.5z"/>
	<g>
		<polygon fill="#FFFFFF" points="123.686,109.606 121.281,107.675 114.179,114.449 121.35,121.223 123.752,119.292     118.594,114.449   "/>
		<polygon fill="#FFFFFF" points="139.65,107.675 137.246,109.606 142.407,114.448 137.314,119.292 139.719,121.223     146.821,114.448   "/>
		<polygon fill="#FFFFFF" points="128.471,123.162 131.247,123.162 135.689,104.838 132.914,104.838   "/>
	</g>
	<g>
		<path fill="#FFFFFF" d="M164.758,73.858c0,1.495,0.161,1.898,1.293,2.102l-0.162,4.604c-3.516,0-4.444-0.525-5.736-1.373    c0,0-3.395,1.373-6.184,1.373c-4,0-6.02-2.585-6.02-6.626c0-4.565,2.586-5.898,7.031-6.221l4.363-0.283v-1.011    c0-1.09-0.848-1.816-2.02-1.816c-2.99,0-7.838,0.322-7.838,0.322l-0.162-4.606c0,0,5.373-0.888,8.323-0.888    c4.524,0,7.11,1.777,7.11,6.949V73.858z M155.668,71.718c-1.416,0.081-2.264,0.606-2.264,2.06c0,1.414,0.525,2.141,1.657,2.141    c1.655,0,4.282-0.604,4.282-0.604v-3.758L155.668,71.718z"/>
	</g>
	<path fill-rule="evenodd" clip-rule="evenodd" fill="#FFFFFF" d="M114.341,170.926h-2.586v-25.852h5.17v2.586h-2.584v2.584h2.584   v2.586h-2.584v2.584h2.584V158h-2.584v2.584h2.584v2.586h-2.584v2.586h2.584v2.584h-2.584V170.926z M98.83,165.756h10.34v5.17   H98.83V165.756z M98.83,152.83h10.34v10.34H98.83V152.83z M98.83,145.074h10.34v5.17H98.83V145.074z M93.66,168.34h-2.585v-2.584   h2.585v-2.586h-2.585v-2.586h2.585V158h-2.585v-2.586h2.585v-2.584h-2.585v-2.586h2.585v-2.584h-2.585v-2.586h5.17v25.852H93.66   V168.34z"/>
	<path fill="#FFFFFF" d="M168.024,144.91c-5.632,0.111-12.156,1.086-17.788,2.928c-0.004-0.036,0.02,16.73,0.02,16.73   c-1.017-0.229-2.166-0.096-3.373,0.453c-2.238,1.019-3.461,3.076-2.727,4.597c0.732,1.521,3.143,1.929,5.381,0.911   c2.049-1.098,2.707-2.092,2.773-3.527l0.05-14.529c4.438-1.305,9.134-2.08,13.574-2.318v12.99   c-1.028-0.254-2.392-0.127-3.626,0.434c-2.238,1.02-3.46,3.078-2.727,4.597c0.733,1.522,3.143,1.929,5.383,0.911   c1.592-0.724,2.866-1.975,3.092-3.184C168.057,165.902,168.002,144.881,168.024,144.91z"/>
	<g>
		<polygon fill="#FFFFFF" points="90.747,79.787 117.253,79.787 113.666,67.227 110.974,68.193 108.643,63.452 101.107,75.18     97.071,72.375   "/>
		<circle fill="#FFFFFF" cx="94.973" cy="64.303" r="4.09"/>
	</g>
</g>
</svg>