<?xml version="1.0" encoding="UTF-8"?>
<!-- Generator: Adobe Illustrator 16.0.0, SVG Export Plug-In . SVG Version: 6.00 Build 0)  -->
<!DOCTYPE svg PUBLIC "-//W3C//DTD SVG 1.1//EN" "http://www.w3.org/Graphics/SVG/1.1/DTD/svg11.dtd">
<svg version="1.1" id="Layer_1" xmlns="http://www.w3.org/2000/svg" xmlns:xlink="http://www.w3.org/1999/xlink" x="0px" y="0px" width="260px" height="260px" viewBox="0 0 260 260" enable-background="new 0 0 260 260" xml:space="preserve">
<g>
	<g>
		<path fill="#3FB4E5" d="M183.57,159H130H76.429c-4.932,0-8.929,4.158-8.929,9.09l17.857,42.919    c0.503,1.079,3.996,8.991,8.928,8.991H130h35.714c4.933,0,8.427-7.832,8.929-8.91l17.857-43.01    C192.5,163.148,188.503,159,183.57,159z M110,198.607c0,3.943-3.055,7.143-7,7.143s-7-3.198-7-7.143V180.75    c0-3.943,3.055-7.143,7-7.143s7,3.197,7,7.143V198.607z M137,198.607c0,3.943-3.557,7.143-7.5,7.143c-3.944,0-7.5-3.198-7.5-7.143    V180.75c0-3.943,3.556-7.143,7.5-7.143c3.943,0,7.5,3.197,7.5,7.143V198.607z M163,198.607c0,3.943-3.055,7.143-7,7.143    s-7-3.198-7-7.143V180.75c0-3.943,3.055-7.143,7-7.143s7,3.197,7,7.143V198.607z"/>
	</g>
	<path fill="#3FB4E5" d="M129.5,112c-3.944,0-7.5,3.198-7.5,7.143v25.893c0,3.944,3.556,7.144,7.5,7.144   c3.943,0,7.5-3.199,7.5-7.144v-25.893C137,115.198,133.443,112,129.5,112z"/>
</g>
<g>
	<g>
		<path fill="none" d="M90,74c0-0.552-0.447-1-1-1H41c-0.553,0-1,0.448-1,1v66c0,0.553,0.447,1,1,1h48c0.553,0,1-0.447,1-1V74z"/>
		<circle fill="none" cx="64.75" cy="144.25" r="1.75"/>
		<g>
			<path fill="none" d="M90,74c0-0.552-0.447-1-1-1H41c-0.553,0-1,0.448-1,1v64c0,0.553,0.447,1,1,1h48c0.553,0,1-0.447,1-1V74z"/>
			<circle fill="none" cx="64.75" cy="143.25" r="1.75"/>
			<path fill="#25336C" d="M89,68H41c-3.313,0-6,2.687-6,6v68c0,3.312,2.687,6,6,6h48c3.313,0,6-2.688,6-6V74     C95,70.687,92.313,68,89,68z M64.75,145c-0.967,0-1.75-0.783-1.75-1.75s0.783-1.75,1.75-1.75s1.75,0.783,1.75,1.75     S65.717,145,64.75,145z M90,138c0,0.553-0.447,1-1,1H41c-0.553,0-1-0.447-1-1V74c0-0.552,0.447-1,1-1h48c0.553,0,1,0.448,1,1V138     z"/>
		</g>
	</g>
	<g>
		<path fill="#E73C50" d="M48,78v25h3h4h26v-7v-7V78H48z M79,96v5H55h-4h-1V80h29v9V96z"/>
		<polygon fill="#E73C50" points="71.047,89.194 69.021,85.375 62.476,94.824 58.969,92.797 53.475,99 76.502,99 73.386,88.649       "/>
		<circle fill="#E73C50" cx="56.88" cy="86.061" r="3.295"/>
	</g>
	<g>
		<rect x="44" y="107" fill="#E73C50" width="41" height="3"/>
		<rect x="44" y="113" fill="#E73C50" width="41" height="3"/>
		<rect x="44" y="119" fill="#E73C50" width="19" height="3"/>
		<rect x="44" y="125" fill="#E73C50" width="19" height="3"/>
		<rect x="44" y="131" fill="#E73C50" width="19" height="3"/>
		<rect x="44" y="119" fill="#E73C50" width="19" height="3"/>
		<rect x="44" y="125" fill="#E73C50" width="19" height="3"/>
		<rect x="44" y="131" fill="#E73C50" width="19" height="3"/>
		<rect x="66" y="119" fill="#E73C50" width="19" height="3"/>
		<rect x="66" y="125" fill="#E73C50" width="19" height="3"/>
		<rect x="66" y="131" fill="#E73C50" width="15" height="3"/>
	</g>
</g>
<g>
	<g>
		<path fill="none" d="M220.994,97.165c0.129-0.417-0.104-0.86-0.521-0.989l-36.244-11.233c-0.418-0.129-0.859,0.104-0.987,0.521    l-15.445,49.835c-0.13,0.417,0.104,0.859,0.521,0.989l36.246,11.231c0.416,0.129,0.857-0.104,0.987-0.521L220.994,97.165z"/>
		<circle fill="none" cx="185.488" cy="144.3" r="1.383"/>
		<g>
			<path fill="none" d="M220.994,97.165c0.129-0.417-0.104-0.86-0.521-0.989l-36.244-11.233c-0.418-0.129-0.859,0.104-0.987,0.521     l-14.978,48.324c-0.13,0.417,0.104,0.86,0.521,0.989l36.243,11.232c0.418,0.129,0.859-0.104,0.99-0.521L220.994,97.165z"/>
			<circle fill="none" cx="185.723" cy="143.545" r="1.383"/>
			<path fill="#25336C" d="M221.643,92.4l-36.244-11.232c-2.5-0.776-5.158,0.624-5.935,3.126l-15.911,51.345     c-0.777,2.504,0.623,5.16,3.125,5.937l36.244,11.231c2.502,0.774,5.158-0.623,5.934-3.125l15.914-51.347     C225.545,95.833,224.145,93.176,221.643,92.4z M185.314,144.867c-0.732-0.229-1.141-1.002-0.914-1.732     c0.226-0.729,1-1.139,1.729-0.91c0.729,0.226,1.14,1,0.913,1.729C186.816,144.684,186.044,145.092,185.314,144.867z      M206.018,145.489c-0.131,0.418-0.572,0.649-0.99,0.521l-36.243-11.232c-0.416-0.129-0.649-0.572-0.521-0.989l14.978-48.324     c0.128-0.417,0.569-0.65,0.987-0.521l36.244,11.233c0.418,0.129,0.65,0.572,0.521,0.989L206.018,145.489z"/>
		</g>
	</g>
	<g>
		<path fill="#E73C50" d="M188.344,90.356l-5.851,18.876l5.286,1.639l1.51,0.467l18.123,5.617l3.275-10.572l0.701-2.265l1.873-6.041    L188.344,90.356z M209.178,105.917l-2.574,8.306l-16.611-5.148l-1.512-0.469l-3.774-1.17l4.446-14.346l21.897,6.787l-1.17,3.775    L209.178,105.917z"/>
		<polygon fill="#E73C50" points="202.492,100.844 195.338,106.447 193.217,103.92 187.673,107.143 205.059,112.532     205.074,104.162 203.127,104.202   "/>
		<circle fill="#E73C50" cx="193.163" cy="98.521" r="2.605"/>
	</g>
	<g>
		
			<rect x="177.463" y="116.061" transform="matrix(-0.9552 -0.296 0.296 -0.9552 343.959 286.564)" fill="#E73C50" width="32.413" height="2.373"/>
		
			<rect x="176.298" y="119.834" transform="matrix(-0.9552 -0.296 0.296 -0.9552 340.5586 293.5963)" fill="#E73C50" width="32.41" height="2.372"/>
		
			<rect x="175.048" y="122.546" transform="matrix(-0.9552 -0.296 0.296 -0.9552 320.3112 295.956)" fill="#E73C50" width="15.02" height="2.371"/>
		
			<rect x="173.641" y="127.079" transform="matrix(-0.9552 -0.296 0.296 -0.9552 316.2224 304.4012)" fill="#E73C50" width="15.022" height="2.371"/>
		
			<rect x="172.234" y="131.62" transform="matrix(-0.9552 -0.2961 0.2961 -0.9552 312.1024 312.8787)" fill="#E73C50" width="15.019" height="2.372"/>
		
			<rect x="175.048" y="122.546" transform="matrix(-0.9552 -0.296 0.296 -0.9552 320.3112 295.956)" fill="#E73C50" width="15.02" height="2.371"/>
		
			<rect x="173.641" y="127.079" transform="matrix(-0.9552 -0.296 0.296 -0.9552 316.2224 304.4012)" fill="#E73C50" width="15.022" height="2.371"/>
		
			<rect x="172.234" y="131.62" transform="matrix(-0.9552 -0.2961 0.2961 -0.9552 312.1024 312.8787)" fill="#E73C50" width="15.019" height="2.372"/>
		
			<rect x="191.662" y="127.695" transform="matrix(-0.9552 -0.296 0.296 -0.9552 351.2614 310.9465)" fill="#E73C50" width="15.019" height="2.371"/>
		
			<rect x="190.244" y="132.225" transform="matrix(-0.9552 -0.2959 0.2959 -0.9552 347.1731 319.3655)" fill="#E73C50" width="15.019" height="2.374"/>
		
			<rect x="188.928" y="136.284" transform="matrix(-0.9552 -0.296 0.296 -0.9552 340.2826 326.4641)" fill="#E73C50" width="11.859" height="2.371"/>
	</g>
</g>
<g>
	<g>
		<path fill="none" d="M143.303,33.902c-0.152-0.409-0.607-0.617-1.018-0.464l-35.561,13.24c-0.408,0.153-0.617,0.608-0.464,1.016    l18.206,48.895c0.151,0.409,0.606,0.617,1.016,0.466l35.561-13.241c0.408-0.152,0.615-0.607,0.464-1.017L143.303,33.902z"/>
		<circle fill="none" cx="143.975" cy="92.911" r="1.383"/>
		<g>
			<path fill="none" d="M143.303,33.902c-0.152-0.409-0.607-0.617-1.018-0.464l-35.561,13.24c-0.408,0.153-0.617,0.608-0.464,1.016     l17.654,47.413c0.151,0.409,0.606,0.618,1.017,0.466l35.559-13.24c0.41-0.154,0.617-0.608,0.465-1.018L143.303,33.902z"/>
			<circle fill="none" cx="143.697" cy="92.17" r="1.383"/>
			<path fill="#25336C" d="M140.906,29.734l-35.559,13.24c-2.455,0.914-3.705,3.645-2.791,6.1l18.758,50.375     c0.913,2.456,3.645,3.706,6.1,2.792l35.559-13.242c2.455-0.914,3.705-3.645,2.791-6.099l-18.758-50.376     C146.092,30.069,143.361,28.82,140.906,29.734z M144.182,93.466c-0.719,0.268-1.514-0.097-1.779-0.813     c-0.268-0.715,0.097-1.513,0.812-1.778c0.717-0.268,1.514,0.097,1.779,0.812C145.262,92.403,144.896,93.199,144.182,93.466z      M160.955,81.315c0.152,0.41-0.055,0.864-0.465,1.018l-35.559,13.24c-0.41,0.152-0.865-0.057-1.017-0.466L106.26,47.694     c-0.153-0.408,0.056-0.863,0.464-1.016l35.561-13.24c0.408-0.152,0.863,0.056,1.018,0.464L160.955,81.315z"/>
		</g>
	</g>
	<g>
		
			<rect x="117.511" y="65.178" transform="matrix(-0.9371 0.3489 -0.3489 -0.9371 277.7311 82.7003)" fill="#E73C50" width="27.812" height="2.372"/>
		
			<rect x="115.982" y="60.612" transform="matrix(-0.9371 0.349 -0.349 -0.9371 277.6302 73.5753)" fill="#E73C50" width="32.41" height="2.371"/>
		
			<rect x="119.359" y="71.446" transform="matrix(-0.9371 0.349 -0.349 -0.9371 269.2073 96.7596)" fill="#E73C50" width="13.055" height="2.372"/>
		
			<rect x="121.571" y="77.235" transform="matrix(-0.9372 0.3489 -0.3489 -0.9372 277.4086 106.8767)" fill="#E73C50" width="15.018" height="2.371"/>
		
			<rect x="123.231" y="81.676" transform="matrix(-0.9371 0.349 -0.349 -0.9371 282.1812 114.8822)" fill="#E73C50" width="15.02" height="2.371"/>
		
			<rect x="124.881" y="86.123" transform="matrix(-0.9371 0.3489 -0.3489 -0.9371 286.9229 122.9363)" fill="#E73C50" width="15.017" height="2.372"/>
		
			<rect x="121.571" y="77.235" transform="matrix(-0.9372 0.3489 -0.3489 -0.9372 277.4086 106.8767)" fill="#E73C50" width="15.018" height="2.371"/>
		
			<rect x="123.231" y="81.676" transform="matrix(-0.9371 0.349 -0.349 -0.9371 282.1812 114.8822)" fill="#E73C50" width="15.02" height="2.371"/>
		
			<rect x="124.881" y="86.123" transform="matrix(-0.9371 0.3489 -0.3489 -0.9371 286.9229 122.9363)" fill="#E73C50" width="15.017" height="2.372"/>
		
			<rect x="137.868" y="71.167" transform="matrix(-0.9371 0.3489 -0.3489 -0.9371 306.8626 89.4312)" fill="#E73C50" width="15.018" height="2.371"/>
		
			<rect x="139.533" y="75.602" transform="matrix(-0.9371 0.3491 -0.3491 -0.9371 311.6432 97.4152)" fill="#E73C50" width="15.021" height="2.372"/>
		
			<rect x="141.291" y="80.608" transform="matrix(-0.9372 0.3489 -0.3489 -0.9372 313.7281 107.0889)" fill="#E73C50" width="11.86" height="2.372"/>
		
			<rect x="109.727" y="43.735" transform="matrix(-0.9371 0.349 -0.349 -0.9371 259.6221 43.0657)" fill="#E73C50" width="32.41" height="2.372"/>
		
			<rect x="111.101" y="47.451" transform="matrix(-0.9372 0.3489 -0.3489 -0.9372 263.5795 49.7997)" fill="#E73C50" width="32.408" height="2.372"/>
		
			<rect x="112.502" y="51.249" transform="matrix(-0.9372 0.3489 -0.3489 -0.9372 267.6187 56.6652)" fill="#E73C50" width="32.409" height="2.372"/>
		
			<rect x="114.188" y="56.617" transform="matrix(-0.9371 0.349 -0.349 -0.9371 263.4568 68.1398)" fill="#E73C50" width="22.805" height="2.372"/>
	</g>
</g>
</svg>