<?xml version="1.0" encoding="UTF-8"?>
<!-- Generator: Adobe Illustrator 16.0.0, SVG Export Plug-In . SVG Version: 6.00 Build 0)  -->
<!DOCTYPE svg PUBLIC "-//W3C//DTD SVG 1.1//EN" "http://www.w3.org/Graphics/SVG/1.1/DTD/svg11.dtd">
<svg version="1.1" id="Layer_1" xmlns="http://www.w3.org/2000/svg" xmlns:xlink="http://www.w3.org/1999/xlink" x="0px" y="0px" width="260px" height="260px" viewBox="0 0 260 260" enable-background="new 0 0 260 260" xml:space="preserve">
<g>
	<g>
		<g>
			<path fill="#3FB4E5" d="M130.43,57.796c19.733,0,35.787,16.055,35.787,35.789s-16.054,35.789-35.787,35.789     s-35.788-16.055-35.788-35.789S110.696,57.796,130.43,57.796 M130.43,49.796c-24.185,0-43.788,19.605-43.788,43.789     s19.604,43.789,43.788,43.789c24.184,0,43.787-19.605,43.787-43.789S154.613,49.796,130.43,49.796L130.43,49.796z"/>
		</g>
	</g>
	<g>
		<path fill="none" d="M185.5,42.76c0-1.248-1.012-2.26-2.26-2.26H74.76c-1.248,0-2.26,1.012-2.26,2.26v148.48    c0,1.248,1.012,2.26,2.26,2.26h108.48c1.248,0,2.26-1.012,2.26-2.26V42.76z"/>
		<g>
			<path fill="none" d="M184.04,40.5H75.561c-1.246,0-3.061,0.312-3.061,1.56V185.57c0,1.245,1.814,2.93,3.061,2.93H184.04     c1.246,0,1.46-1.685,1.46-2.93V42.06C185.5,40.812,185.286,40.5,184.04,40.5z"/>
			<circle fill="none" cx="129.235" cy="198.564" r="3.955"/>
			<path fill="#25336C" d="M197.5,43.06c0-7.489-6.071-13.56-13.56-13.56H75.06c-7.489,0-13.56,6.071-13.56,13.56V196.94     c0,7.488,6.071,13.56,13.56,13.56H183.94c7.488,0,13.56-6.071,13.56-13.56V43.06z M129.235,202.52     c-2.186,0-3.955-1.771-3.955-3.955c0-2.184,1.77-3.955,3.955-3.955c2.185,0,3.954,1.771,3.954,3.955     C133.189,200.749,131.42,202.52,129.235,202.52z M185.5,185.57c0,1.245-0.214,2.93-1.46,2.93H75.561     c-1.246,0-3.061-1.685-3.061-2.93V42.06c0-1.247,1.814-1.56,3.061-1.56H184.04c1.246,0,1.46,0.312,1.46,1.56V185.57z"/>
		</g>
	</g>
	<g>
		<path fill="#3FB4E5" d="M130.395,49.443c24.438,0,44.176,19.742,44.177,44.093c0,12.438-5.21,23.741-13.535,31.755    c-2.613,3.14-4.145,7.147-4.651,18.483c-0.122,2.73-2.132,3.985-4.254,3.891c-2.117-0.093-4.01-1.524-3.889-4.253    c0.535-12.011,2.343-18.412,6.875-23.726c6.857-6.539,11.301-15.938,11.3-26.149c0.001-19.852-16.09-35.94-36.036-35.942    c-19.852,0.002-35.932,16.093-35.934,35.941c0,10.211,4.443,19.607,11.3,26.146c4.532,5.314,6.342,11.716,6.877,23.729    c0.123,2.729-1.771,4.16-3.89,4.254s-4.133-1.163-4.253-3.89c-0.505-11.338-2.036-15.346-4.65-18.483    c-8.327-8.016-13.535-19.316-13.535-31.755C86.296,69.186,106.043,49.445,130.395,49.443L130.395,49.443z M148.08,157.845h-36.752    c-2.084,0-3.092-1.437-3.093-3.093c0-1.654,1.009-3.092,3.093-3.092l36.754,0.002c2.08-0.002,3.089,1.436,3.089,3.089    C151.172,156.407,150.162,157.845,148.08,157.845L148.08,157.845z M144.112,168.013l-28.813,0.002    c-2.086-0.002-3.094-1.438-3.095-3.094c0.001-1.655,1.01-3.092,3.094-3.094l28.814,0.002c2.081-0.001,3.092,1.437,3.092,3.092    C147.204,166.577,146.197,168.015,144.112,168.013L144.112,168.013z M139.703,172.186c-1.545,3.326-5.469,5.688-10.062,5.687    c-4.593,0.001-8.517-2.361-10.061-5.688L139.703,172.186L139.703,172.186z"/>
	</g>
	<g>
		<g>
			<path fill="#E73C50" d="M130.43,69.334c13.371,0,24.25,10.879,24.25,24.251s-10.879,24.251-24.25,24.251     c-13.372,0-24.25-10.879-24.25-24.251S117.058,69.334,130.43,69.334 M130.43,65.334c-15.603,0-28.25,12.648-28.25,28.251     s12.647,28.251,28.25,28.251s28.25-12.648,28.25-28.251S146.032,65.334,130.43,65.334L130.43,65.334z"/>
		</g>
	</g>
	<g>
		<path fill="#E73C50" d="M130.434,90.789c-1.546,0-2.796,1.25-2.796,2.795c0,1.546,1.25,2.798,2.796,2.798    c1.545,0,2.798-1.252,2.798-2.798C133.231,92.039,131.979,90.789,130.434,90.789z"/>
		<path fill="#E73C50" d="M145.006,92.256c-0.635-7.011-6.232-12.61-13.243-13.244V75.35h-2.658v3.662    c-7.012,0.634-12.609,6.233-13.244,13.244h-3.662v2.658h3.662c0.635,7.013,6.232,12.608,13.244,13.244v3.663h2.658v-3.663    c7.011-0.636,12.608-6.231,13.243-13.244h3.663v-2.658H145.006z M142.335,94.914c-0.615,5.545-5.027,9.959-10.572,10.574v-4.792    h-2.658v4.792c-5.544-0.615-9.959-5.029-10.573-10.574h4.792v-2.658h-4.792c0.614-5.544,5.029-9.959,10.573-10.574v4.793h2.658    v-4.793c5.545,0.615,9.957,5.03,10.572,10.574h-4.789v2.658H142.335z"/>
	</g>
</g>
<path fill="#E73C50" d="M86.476,140.202"/>
<path fill="#E73C50" d="M86.288,140.259"/>
<path fill="#E73C50" d="M86.381,141.232"/>
<path fill="#E73C50" d="M86.476,73.202"/>
<path fill="#E73C50" d="M86.288,73.259"/>
<path fill="#E73C50" d="M86.381,74.232"/>
</svg>