<?xml version="1.0" encoding="UTF-8"?>
<!-- Generator: Adobe Illustrator 16.0.0, SVG Export Plug-In . SVG Version: 6.00 Build 0)  -->
<!DOCTYPE svg PUBLIC "-//W3C//DTD SVG 1.1//EN" "http://www.w3.org/Graphics/SVG/1.1/DTD/svg11.dtd">
<svg version="1.1" id="Layer_1" xmlns="http://www.w3.org/2000/svg" xmlns:xlink="http://www.w3.org/1999/xlink" x="0px" y="0px" width="260px" height="260px" viewBox="0 0 260 260" enable-background="new 0 0 260 260" xml:space="preserve">
<g>
	<g>
		<g>
			<path fill-rule="evenodd" clip-rule="evenodd" fill="#E73C50" d="M92.184,194.109l-0.061-44.203h-5.268v49.561h86.188v-5.191     L92.184,194.109z M130.836,166.455c0-1.107-0.896-2.004-2.002-2.004h-8.01c-1.107,0-2.004,0.896-2.004,2.004v22.066h12.016     V166.455z M111.816,176.477c0-1.109-0.898-2.004-2.002-2.004h-8.01c-1.109,0-2.004,0.895-2.004,2.004v12.045h12.016V176.477z      M149.857,154.496c0-1.107-0.9-2.004-2.004-2.004h-8.01c-1.109,0-2.004,0.896-2.004,2.004v34.025h12.018V154.496z      M168.877,166.516c0-1.107-0.898-2.004-2.004-2.004h-8.01c-1.107,0-2.002,0.896-2.002,2.004v22.006h12.016V166.516z"/>
		</g>
	</g>
	<path fill-rule="evenodd" clip-rule="evenodd" fill="#25336C" d="M185.479,219.801H74.521c-6.814,0-12.328-5.508-12.328-12.303   V62.953c0-6.791,5.514-12.299,12.328-12.299h30.82v12.816H80.686c-3.406,0-6.164,2.752-6.164,6.154v131.719   c0,3.402,2.758,6.154,6.164,6.154h98.627c3.408,0,6.166-2.752,6.166-6.154V69.625c0-3.402-2.758-6.154-6.166-6.154h-24.656V50.654   h30.822c6.807,0,12.328,5.508,12.328,12.299v144.545C197.807,214.293,192.285,219.801,185.479,219.801z"/>
	<rect x="105.342" y="96.377" fill-rule="evenodd" clip-rule="evenodd" fill="#E73C50" width="67.807" height="6.154"/>
	<rect x="105.342" y="114.836" fill-rule="evenodd" clip-rule="evenodd" fill="#E73C50" width="67.807" height="6.15"/>
	<rect x="105.342" y="133.291" fill-rule="evenodd" clip-rule="evenodd" fill="#E73C50" width="67.807" height="6.152"/>
	<rect x="86.85" y="96.252" fill-rule="evenodd" clip-rule="evenodd" fill="#E73C50" width="6.164" height="6.152"/>
	<rect x="86.85" y="114.709" fill-rule="evenodd" clip-rule="evenodd" fill="#E73C50" width="6.164" height="6.152"/>
	<rect x="86.85" y="133.164" fill-rule="evenodd" clip-rule="evenodd" fill="#E73C50" width="6.164" height="6.152"/>
</g>
<g>
	<path fill="#3FB4E5" d="M166.984,70h-18.492c0,0,0.205-2.914,0.205-13.686c0-9.992-8.297-19.116-18.697-19.116   c-10.402,0-18.422,8.679-18.422,19.058c0,9.998-0.07,13.744-0.07,13.744H93.014C89.607,70,87,72.76,87,76.162   C87,79.555,87,82,87,82h86c0,0,0-2.445,0-5.838C173,72.76,170.393,70,166.984,70z M130,62.953c-3.406,0-6.164-2.752-6.164-6.152   c0-3.395,2.758-6.146,6.164-6.146s6.164,2.752,6.164,6.146C136.164,60.201,133.406,62.953,130,62.953z"/>
</g>
</svg>