<?xml version="1.0" encoding="UTF-8"?>
<!-- Generator: Adobe Illustrator 16.0.0, SVG Export Plug-In . SVG Version: 6.00 Build 0)  -->
<!DOCTYPE svg PUBLIC "-//W3C//DTD SVG 1.1//EN" "http://www.w3.org/Graphics/SVG/1.1/DTD/svg11.dtd">
<svg version="1.1" id="Layer_1" xmlns="http://www.w3.org/2000/svg" xmlns:xlink="http://www.w3.org/1999/xlink" x="0px" y="0px" width="260px" height="260px" viewBox="0 0 260 260" enable-background="new 0 0 260 260" xml:space="preserve">
<g>
	<g>
		<circle fill="none" cx="53.033" cy="54.072" r="2.875"/>
		<circle fill="none" cx="73.158" cy="54.072" r="2.875"/>
		<circle fill="none" cx="63.096" cy="54.072" r="2.875"/>
		<path fill="#25336C" d="M190.5,186.5h-145v-123h145v12h10V51c0-4.418-3.082-7.5-7.5-7.5H44c-4.418,0-8.5,3.082-8.5,7.5v137    c0,4.418,4.082,8.5,8.5,8.5h149c4.418,0,7.5-4.082,7.5-8.5v-34.5h-10V186.5z M73.158,51.197c1.588,0,2.875,1.287,2.875,2.875    s-1.287,2.875-2.875,2.875s-2.875-1.287-2.875-2.875S71.57,51.197,73.158,51.197z M63.096,51.197c1.588,0,2.875,1.287,2.875,2.875    s-1.287,2.875-2.875,2.875s-2.875-1.287-2.875-2.875S61.508,51.197,63.096,51.197z M53.033,51.197    c1.588,0,2.875,1.287,2.875,2.875s-1.287,2.875-2.875,2.875s-2.875-1.287-2.875-2.875S51.445,51.197,53.033,51.197z"/>
	</g>
	<g>
		<g>
			<path fill="#E73C50" d="M82.147,91.374c0.797-0.758,0.748-1.941-0.11-2.631l-3.391-2.725c-0.858-0.689-2.211-0.632-3.007,0.127     l-16.342,15.582c-0.796,0.759-0.793,1.998,0.007,2.753l16.511,15.596c0.8,0.755,2.156,0.81,3.014,0.121l3.391-2.724     c0.857-0.688,0.903-1.868,0.102-2.621l-11.056-10.376c-0.802-0.753-0.806-1.989-0.009-2.747L82.147,91.374z"/>
		</g>
		<g>
			<path fill="#E73C50" d="M128.286,86.139c-0.8-0.755-2.156-0.81-3.014-0.121l-3.393,2.725c-0.857,0.688-0.903,1.868-0.101,2.62     l11.055,10.375c0.803,0.752,0.807,1.988,0.01,2.746l-10.892,10.358c-0.797,0.758-0.747,1.941,0.11,2.63l3.394,2.726     c0.857,0.688,2.211,0.631,3.007-0.128l16.34-15.584c0.796-0.759,0.793-1.998-0.007-2.753L128.286,86.139z"/>
		</g>
		<g>
			<path fill="#E73C50" d="M97.028,124.756c-0.26,1.068,0.429,1.943,1.528,1.943h3.517c1.1,0,2.212-0.875,2.472-1.943l11.087-45.73     c0.26-1.068-0.429-1.943-1.528-1.943h-3.516c-1.1,0-2.212,0.875-2.472,1.943L97.028,124.756z"/>
		</g>
	</g>
	<g>
		<g>
			<path fill="#3FB4E5" d="M208.41,117.634c0.777-0.777,0.777-2.05,0-2.828l-13.717-13.711c-0.777-0.778-2.051-0.777-2.828,0     l-46.806,46.807c-0.777,0.777-1.415,1.414-1.417,1.414c-0.001,0-0.002,0.001-0.003,0.003c-0.001,0.001-0.001,0.002-0.001,0.002     c-0.001,0-0.001,0,0,0.001c0,0-0.278,0.856-0.618,1.903l-6.727,20.696c-0.34,1.047,0.237,1.624,1.284,1.284l20.698-6.725     c1.046-0.34,1.903-0.618,1.903-0.617h0.001c0-0.001,0.001-0.001,0.003-0.001c0.001,0,0.002-0.001,0.002-0.003     s0.637-0.64,1.414-1.417L208.41,117.634z M156.433,150.568c-0.777,0.777-2.028,0.8-2.778,0.05     c-0.751-0.75-0.729-2.001,0.049-2.778l38.206-38.2c0.777-0.777,2.027-0.802,2.777-0.053s0.727,1.998-0.051,2.775L156.433,150.568     z"/>
		</g>
		<g>
			<path fill="#3FB4E5" d="M200.311,92.65c-0.777,0.777-0.777,2.051,0,2.828l13.714,13.714c0.777,0.777,2.05,0.777,2.828,0     l8.059-8.062c0.778-0.777,0.777-2.051,0-2.828L211.198,84.59c-0.777-0.777-2.05-0.777-2.828,0L200.311,92.65z"/>
		</g>
	</g>
	<path fill="#E73C50" d="M115.5,171.5c0,1.104-0.896,2-2,2h-54c-1.104,0-2-0.896-2-2v-2c0-1.104,0.896-2,2-2h54c1.104,0,2,0.896,2,2   V171.5z"/>
	<path fill="#E73C50" d="M127.5,157.5c0,1.104-0.896,2-2,2h-66c-1.104,0-2-0.896-2-2v-2c0-1.104,0.896-2,2-2h66c1.104,0,2,0.896,2,2   V157.5z"/>
	<path fill="#E73C50" d="M127.5,143.5c0,1.104-0.896,2-2,2h-66c-1.104,0-2-0.896-2-2v-2c0-1.104,0.896-2,2-2h66c1.104,0,2,0.896,2,2   V143.5z"/>
</g>
</svg>