<?xml version="1.0" encoding="utf-8"?>
<!-- Generator: Adobe Illustrator 16.0.0, SVG Export Plug-In . SVG Version: 6.00 Build 0)  -->
<!DOCTYPE svg PUBLIC "-//W3C//DTD SVG 1.1//EN" "http://www.w3.org/Graphics/SVG/1.1/DTD/svg11.dtd">
<svg version="1.1" id="Layer_1" xmlns="http://www.w3.org/2000/svg" xmlns:xlink="http://www.w3.org/1999/xlink" x="0px" y="0px"
	 width="260px" height="260px" viewBox="0 0 260 260" enable-background="new 0 0 260 260" xml:space="preserve">
<g>
	<path fill-rule="evenodd" clip-rule="evenodd" fill="#25336C" d="M180,210H80c-5.531,0-10-4.469-10-10V60c0-5.531,4.469-10,10-10
		h70l40,40v110C190,205.531,185.531,210,180,210z M149,95V61H81v138h98V95H149z"/>
	<g>
		<path fill="#E73C50" d="M90.866,147.399h5.756v6.972h-5.756V147.399z"/>
		<path fill="#E73C50" d="M106.028,131.02l4.446,18.906h1.404l4.538-18.906h5.429l-5.99,23.352h-9.452l-5.943-23.352H106.028z"/>
		<path fill="#E73C50" d="M144.684,154.371h-5.382v-1.124c0,0-3.322,1.638-6.082,1.638c-6.225,0-8.893-3.51-8.893-12.353
			c0-8.377,3.089-12.073,9.733-12.073c1.826,0,5.008,0.561,5.241,0.609v-9.453h5.382V154.371z M139.302,148.895v-13.147
			c-0.233,0-2.901-0.421-4.866-0.421c-3.229,0-4.68,2.104-4.68,7.253c0,5.66,1.451,7.253,4.305,7.347
			C136.354,149.877,139.302,148.895,139.302,148.895z"/>
		<path fill="#E73C50" d="M148.965,131.02h5.335v1.265c0,0,3.182-1.825,5.849-1.825c6.084,0,8.984,3.229,8.984,11.979
			c0,9.735-3.322,12.447-10.482,12.447c-1.918,0-4.117-0.374-4.351-0.419v9.92h-5.335V131.02z M154.3,136.589v13.148
			c0.187,0.049,2.433,0.328,3.978,0.328c4.211,0,5.427-2.06,5.427-7.628c0-5.286-1.729-7.065-4.538-7.065
			C157.106,135.372,154.3,136.589,154.3,136.589z"/>
	</g>
</g>
</svg>
