<?xml version="1.0" encoding="utf-8"?>
<!-- Generator: Adobe Illustrator 16.0.0, SVG Export Plug-In . SVG Version: 6.00 Build 0)  -->
<!DOCTYPE svg PUBLIC "-//W3C//DTD SVG 1.1//EN" "http://www.w3.org/Graphics/SVG/1.1/DTD/svg11.dtd">
<svg version="1.1" id="Layer_1" xmlns="http://www.w3.org/2000/svg" xmlns:xlink="http://www.w3.org/1999/xlink" x="0px" y="0px"
	 width="260px" height="260px" viewBox="0 0 260 260" enable-background="new 0 0 260 260" xml:space="preserve">
<g>
	<g>
		<path fill-rule="evenodd" clip-rule="evenodd" fill="#3FB4E5" d="M170,112c0,2.2-1.8,4-4,4h-25c-2.2,0-4-1.8-4-4V71
			c0-2.2,1.8-4,4-4h25c2.2,0,4,1.8,4,4V112z"/>
		<path fill-rule="evenodd" clip-rule="evenodd" fill="#FFFFFF" d="M164,90c0,1.1-0.9,2-2,2h-18c-1.1,0-2-0.9-2-2l0,0
			c0-1.1,0.9-2,2-2h18C163.1,88,164,88.9,164,90L164,90z"/>
		<path fill-rule="evenodd" clip-rule="evenodd" fill="#FFFFFF" d="M164,98c0,1.1-0.9,2-2,2h-18c-1.1,0-2-0.9-2-2l0,0
			c0-1.1,0.9-2,2-2h18C163.1,96,164,96.9,164,98L164,98z"/>
		<path fill-rule="evenodd" clip-rule="evenodd" fill="#FFFFFF" d="M157,106c0,1.1-0.9,2-2,2h-11c-1.1,0-2-0.9-2-2l0,0
			c0-1.1,0.9-2,2-2h11C156.1,104,157,104.9,157,106L157,106z"/>
		<path fill-rule="evenodd" clip-rule="evenodd" fill="#FFFFFF" d="M164,82c0,1.1-0.9,2-2,2h-18c-1.1,0-2-0.9-2-2v-6
			c0-1.1,0.9-2,2-2h18c1.1,0,2,0.9,2,2V82z"/>
	</g>
	<g>
		<g>
			<path fill="none" d="M186,53.26c0-1.248-1.012-2.26-2.26-2.26H75.26C74.012,51,73,52.012,73,53.26v148.48
				c0,1.248,1.012,2.26,2.26,2.26h108.48c1.248,0,2.26-1.012,2.26-2.26V53.26z"/>
			<g>
				<path fill="none" d="M184.04,51H75.561C74.314,51,73,51.312,73,52.56V196.07c0,1.245,1.314,2.93,2.561,2.93H184.04
					c1.246,0,1.96-1.685,1.96-2.93V52.56C186,51.312,185.286,51,184.04,51z"/>
				<circle fill="none" cx="129.235" cy="209.064" r="3.955"/>
				<path fill="#25336C" d="M198,53.56C198,46.07,191.93,40,184.44,40H75.56C68.07,40,62,46.07,62,53.56V207.44
					C62,214.93,68.07,221,75.56,221H184.44c7.489,0,13.56-6.07,13.56-13.56V53.56z M129.235,213.02
					c-2.186,0-3.955-1.771-3.955-3.955c0-2.184,1.77-3.955,3.955-3.955c2.185,0,3.954,1.771,3.954,3.955
					C133.189,211.249,131.42,213.02,129.235,213.02z M186,196.07c0,1.245-0.714,2.93-1.96,2.93H75.561
					c-1.246,0-2.561-1.685-2.561-2.93V52.56c0-1.247,1.314-1.56,2.561-1.56H184.04c1.246,0,1.96,0.312,1.96,1.56V196.07z"/>
			</g>
		</g>
	</g>
	<path fill="#E73C50" d="M166,138v41h-25v-41H166 M166,134h-25c-2.209,0-4,1.791-4,4v41c0,2.209,1.791,4,4,4h25c2.209,0,4-1.791,4-4
		v-41C170,135.791,168.209,134,166,134L166,134z"/>
	<g>
		<path fill-rule="evenodd" clip-rule="evenodd" fill="#3FB4E5" d="M120,112c0,2.2-1.8,4-4,4H91c-2.2,0-4-1.8-4-4V71
			c0-2.2,1.8-4,4-4h25c2.2,0,4,1.8,4,4V112z"/>
		<path fill-rule="evenodd" clip-rule="evenodd" fill="#FFFFFF" d="M114,90c0,1.1-0.9,2-2,2H94c-1.1,0-2-0.9-2-2l0,0
			c0-1.1,0.9-2,2-2h18C113.1,88,114,88.9,114,90L114,90z"/>
		<path fill-rule="evenodd" clip-rule="evenodd" fill="#FFFFFF" d="M114,98c0,1.1-0.9,2-2,2H94c-1.1,0-2-0.9-2-2l0,0
			c0-1.1,0.9-2,2-2h18C113.1,96,114,96.9,114,98L114,98z"/>
		<path fill-rule="evenodd" clip-rule="evenodd" fill="#FFFFFF" d="M107,106c0,1.1-0.9,2-2,2H94c-1.1,0-2-0.9-2-2l0,0
			c0-1.1,0.9-2,2-2h11C106.1,104,107,104.9,107,106L107,106z"/>
		<path fill-rule="evenodd" clip-rule="evenodd" fill="#FFFFFF" d="M114,82c0,1.1-0.9,2-2,2H94c-1.1,0-2-0.9-2-2v-6c0-1.1,0.9-2,2-2
			h18c1.1,0,2,0.9,2,2V82z"/>
	</g>
	<g>
		<path fill-rule="evenodd" clip-rule="evenodd" fill="#3FB4E5" d="M120,179c0,2.2-1.8,4-4,4H91c-2.2,0-4-1.8-4-4v-41
			c0-2.2,1.8-4,4-4h25c2.2,0,4,1.8,4,4V179z"/>
		<path fill-rule="evenodd" clip-rule="evenodd" fill="#FFFFFF" d="M114,157c0,1.1-0.9,2-2,2H94c-1.1,0-2-0.9-2-2l0,0
			c0-1.1,0.9-2,2-2h18C113.1,155,114,155.9,114,157L114,157z"/>
		<path fill-rule="evenodd" clip-rule="evenodd" fill="#FFFFFF" d="M114,165c0,1.1-0.9,2-2,2H94c-1.1,0-2-0.9-2-2l0,0
			c0-1.1,0.9-2,2-2h18C113.1,163,114,163.9,114,165L114,165z"/>
		<path fill-rule="evenodd" clip-rule="evenodd" fill="#FFFFFF" d="M107,173c0,1.1-0.9,2-2,2H94c-1.1,0-2-0.9-2-2l0,0
			c0-1.1,0.9-2,2-2h11C106.1,171,107,171.9,107,173L107,173z"/>
		<path fill-rule="evenodd" clip-rule="evenodd" fill="#FFFFFF" d="M114,149c0,1.1-0.9,2-2,2H94c-1.1,0-2-0.9-2-2v-6
			c0-1.1,0.9-2,2-2h18c1.1,0,2,0.9,2,2V149z"/>
	</g>
	<path fill-rule="evenodd" clip-rule="evenodd" fill="#E73C50" d="M155,164.5h-3V160h-4.5v-3h4.5v-4.5h3v4.5h4.5v3H155V164.5z"/>
</g>
</svg>
