<?xml version="1.0" encoding="utf-8"?>
<!-- Generator: Adobe Illustrator 16.0.0, SVG Export Plug-In . SVG Version: 6.00 Build 0)  -->
<!DOCTYPE svg PUBLIC "-//W3C//DTD SVG 1.1//EN" "http://www.w3.org/Graphics/SVG/1.1/DTD/svg11.dtd">
<svg version="1.1" id="Layer_1" xmlns="http://www.w3.org/2000/svg" xmlns:xlink="http://www.w3.org/1999/xlink" x="0px" y="0px"
	 width="260px" height="260px" viewBox="0 0 260 260" enable-background="new 0 0 260 260" xml:space="preserve">
<g>
	<g>
		<g>
			<path fill="none" d="M135,50.855c0-1.025-0.831-1.855-1.855-1.855H43.855C42.831,49,42,49.831,42,50.855v121.289
				c0,1.024,0.831,1.855,1.855,1.855h89.289c1.024,0,1.855-0.831,1.855-1.855V50.855z"/>
			<circle fill="none" cx="88.706" cy="181.495" r="3.248"/>
			<g>
				<path fill="none" d="M135,50.855c0-1.025-0.831-1.855-1.855-1.855H43.855C42.831,49,42,49.831,42,50.855v118.289
					c0,1.024,0.831,1.855,1.855,1.855h89.289c1.024,0,1.855-0.831,1.855-1.855V50.855z"/>
				<circle fill="none" cx="88.706" cy="179.639" r="3.248"/>
				<path fill="#202D56" d="M144,51.134C144,44.985,139.016,40,132.866,40H44.134C37.984,40,33,44.985,33,51.134v125.732
					C33,183.016,37.984,188,44.134,188h88.732c6.149,0,11.134-4.984,11.134-11.134V51.134z M88.706,182.887
					c-1.794,0-3.247-1.454-3.247-3.248c0-1.793,1.453-3.247,3.247-3.247s3.247,1.454,3.247,3.247
					C91.953,181.433,90.5,182.887,88.706,182.887z M135,169.144c0,1.025-0.831,1.856-1.855,1.856H43.855
					c-1.024,0-1.855-0.831-1.855-1.856V50.856C42,49.831,42.831,49,43.855,49h89.289c1.024,0,1.855,0.831,1.855,1.856V169.144z"/>
			</g>
		</g>
		<g>
			<path fill="#E73C50" d="M59,58c-1.1,0-2,0.9-2,2v41c0,1.1,0.9,2,2,2h8c1.1,0,2.225,0,2.5,0s1.4,0,2.5,0h45c1.1,0,2-0.9,2-2V73
				c0-1.1,0-2.225,0-2.5s0-1.4,0-2.5v-8c0-1.1-0.9-2-2-2H59z M115,70.5c0,0.275,0,1.4,0,2.5v24c0,1.1-0.9,2-2,2H72
				c-1.1,0-2.225,0-2.5,0s-1.4,0-2.5,0h-4c-1.1,0-2-0.9-2-2V64c0-1.1,0.9-2,2-2h50c1.1,0,2,0.9,2,2v4C115,69.1,115,70.225,115,70.5z
				"/>
			<polygon fill="#E73C50" points="67.783,95.664 110.515,95.664 104.731,76.886 100.391,78.33 96.634,71.241 84.485,88.776 
				77.979,84.583 			"/>
			<circle fill="#E73C50" cx="74.102" cy="72.514" r="6.114"/>
		</g>
		<g>
			<g>
				<path fill="#E73C50" d="M126,114c0,1.1-0.9,2-2,2H53c-1.1,0-2-0.9-2-2v-2c0-1.1,0.9-2,2-2h71c1.1,0,2,0.9,2,2V114z"/>
			</g>
			<g>
				<path fill="#E73C50" d="M126,125c0,1.1-0.9,2-2,2H53c-1.1,0-2-0.9-2-2v-2c0-1.1,0.9-2,2-2h71c1.1,0,2,0.9,2,2V125z"/>
			</g>
			<g>
				<path fill="#E73C50" d="M85,137c0,1.1-0.9,2-2,2H53c-1.1,0-2-0.9-2-2v-2c0-1.1,0.9-2,2-2h30c1.1,0,2,0.9,2,2V137z"/>
			</g>
			<g>
				<path fill="#E73C50" d="M85,149c0,1.1-0.9,2-2,2H53c-1.1,0-2-0.9-2-2v-2c0-1.1,0.9-2,2-2h30c1.1,0,2,0.9,2,2V149z"/>
			</g>
			<g>
				<path fill="#E73C50" d="M85,161c0,1.1-0.9,2-2,2H53c-1.1,0-2-0.9-2-2v-2c0-1.1,0.9-2,2-2h30c1.1,0,2,0.9,2,2V161z"/>
			</g>
			<g>
				<path fill="#E73C50" d="M85,137c0,1.1-0.9,2-2,2H53c-1.1,0-2-0.9-2-2v-2c0-1.1,0.9-2,2-2h30c1.1,0,2,0.9,2,2V137z"/>
			</g>
			<g>
				<path fill="#E73C50" d="M85,149c0,1.1-0.9,2-2,2H53c-1.1,0-2-0.9-2-2v-2c0-1.1,0.9-2,2-2h30c1.1,0,2,0.9,2,2V149z"/>
			</g>
			<g>
				<path fill="#E73C50" d="M85,161c0,1.1-0.9,2-2,2H53c-1.1,0-2-0.9-2-2v-2c0-1.1,0.9-2,2-2h30c1.1,0,2,0.9,2,2V161z"/>
			</g>
			<g>
				<path fill="#E73C50" d="M126,137c0,1.1-0.9,2-2,2H93c-1.1,0-2-0.9-2-2v-2c0-1.1,0.9-2,2-2h31c1.1,0,2,0.9,2,2V137z"/>
			</g>
			<g>
				<path fill="#E73C50" d="M126,149c0,1.1-0.9,2-2,2H93c-1.1,0-2-0.9-2-2v-2c0-1.1,0.9-2,2-2h31c1.1,0,2,0.9,2,2V149z"/>
			</g>
			<g>
				<path fill="#E73C50" d="M118,161c0,1.1-0.9,2-2,2H93c-1.1,0-2-0.9-2-2v-2c0-1.1,0.9-2,2-2h23c1.1,0,2,0.9,2,2V161z"/>
			</g>
		</g>
	</g>
	<path fill-rule="evenodd" clip-rule="evenodd" fill="#3FB4E5" d="M208.727,83.775L197.62,96.233c-1.535,1.725-4.023,1.725-5.558,0
		L180.96,83.775c-1.527-1.714-1.527-4.479-0.02-6.2h8.934l0,0h0.155v-9.97c0-2.757-2.228-4.985-4.984-4.985h-9.971v8.898
		c-1.721,1.515-4.485,1.507-6.199-0.015l-12.458-11.107c-1.725-1.535-1.725-4.023,0-5.557l12.458-11.103
		c1.714-1.527,4.479-1.527,6.199-0.02v8.934l0,0l0,0h9.971c8.26,0,14.954,6.694,14.954,14.954v9.97h8.742
		C210.256,79.296,210.249,82.061,208.727,83.775z"/>
	<g>
		<rect x="83" y="113" fill="#FFFFFF" width="128" height="102"/>
		<g>
			<path fill="none" d="M212,117.856c0-1.025-0.831-1.856-1.855-1.856H88.855c-1.024,0-1.855,0.831-1.855,1.856v89.289
				c0,1.024,0.831,1.855,1.855,1.855h121.289c1.024,0,1.855-0.831,1.855-1.855V117.856z"/>
			<g>
				<path fill="none" d="M209,117.856c0-1.025-0.831-1.856-1.855-1.856H88.855c-1.024,0-1.855,0.831-1.855,1.856v89.289
					c0,1.024,0.831,1.855,1.855,1.855h118.289c1.024,0,1.855-0.831,1.855-1.855V117.856z"/>
				<circle fill="none" cx="218.087" cy="162.794" r="3.248"/>
				<path fill="#25336C" d="M226,118.134c0-6.149-4.984-11.134-11.134-11.134H89.134C82.984,107,78,111.985,78,118.134v88.731
					C78,213.015,82.984,218,89.134,218h125.732c6.149,0,11.134-4.985,11.134-11.135V118.134z M221.335,162.794
					c0,1.794-1.454,3.247-3.247,3.247s-3.248-1.453-3.248-3.247s1.455-3.247,3.248-3.247S221.335,161,221.335,162.794z M209,207.145
					c0,1.024-0.831,1.855-1.855,1.855H88.855c-1.024,0-1.855-0.831-1.855-1.855v-89.289c0-1.025,0.831-1.855,1.855-1.855h118.289
					c1.024,0,1.855,0.831,1.855,1.855V207.145z"/>
			</g>
		</g>
		<g>
			<path fill="#E73C50" d="M97,122c-1.1,0-2,0.9-2,2v40c0,1.1,0.9,2,2,2h7c1.1,0,2.45,0,3,0s1.9,0,3,0h44c1.1,0,2-0.9,2-2v-27
				c0-1.1,0-2.45,0-3s0-1.9,0-3v-7c0-1.1-0.9-2-2-2H97z M152,134c0,0.55,0,1.9,0,3v23c0,1.1-0.9,2-2,2h-40c-1.1,0-2.45,0-3,0
				s-1.9,0-3,0h-3c-1.1,0-2-0.9-2-2v-32c0-1.1,0.9-2,2-2h49c1.1,0,2,0.9,2,2v3C152,132.1,152,133.45,152,134z"/>
			<polygon fill="#E73C50" points="105.31,159.611 148.041,159.611 142.257,140.835 137.917,142.278 134.159,135.189 
				122.012,152.726 115.505,148.532 			"/>
			<circle fill="#E73C50" cx="111.628" cy="136.463" r="6.114"/>
		</g>
		<path fill="#E73C50" d="M201,177c0,1.1-0.9,2-2,2H97c-1.1,0-2-0.9-2-2v-2c0-1.1,0.9-2,2-2h102c1.1,0,2,0.9,2,2V177z"/>
		<path fill="#E73C50" d="M201,188c0,1.1-0.9,2-2,2H97c-1.1,0-2-0.9-2-2v-2c0-1.1,0.9-2,2-2h102c1.1,0,2,0.9,2,2V188z"/>
		<path fill="#E73C50" d="M169,199c0,1.1-0.9,2-2,2H97c-1.1,0-2-0.9-2-2v-2c0-1.1,0.9-2,2-2h70c1.1,0,2,0.9,2,2V199z"/>
		<path fill="#E73C50" d="M201,128c0,1.1-0.9,2-2,2h-33c-1.1,0-2-0.9-2-2v-2c0-1.1,0.9-2,2-2h33c1.1,0,2,0.9,2,2V128z"/>
		<path fill="#E73C50" d="M201,139c0,1.1-0.9,2-2,2h-33c-1.1,0-2-0.9-2-2v-2c0-1.1,0.9-2,2-2h33c1.1,0,2,0.9,2,2V139z"/>
		<path fill="#E73C50" d="M201,150c0,1.1-0.9,2-2,2h-33c-1.1,0-2-0.9-2-2v-2c0-1.1,0.9-2,2-2h33c1.1,0,2,0.9,2,2V150z"/>
		<path fill="#E73C50" d="M191,161c0,1.1-0.9,2-2,2h-23c-1.1,0-2-0.9-2-2v-2c0-1.1,0.9-2,2-2h23c1.1,0,2,0.9,2,2V161z"/>
	</g>
</g>
</svg>
