<?xml version="1.0" encoding="utf-8"?>
<!-- Generator: Adobe Illustrator 16.0.0, SVG Export Plug-In . SVG Version: 6.00 Build 0)  -->
<!DOCTYPE svg PUBLIC "-//W3C//DTD SVG 1.1//EN" "http://www.w3.org/Graphics/SVG/1.1/DTD/svg11.dtd">
<svg version="1.1" id="Layer_1" xmlns="http://www.w3.org/2000/svg" xmlns:xlink="http://www.w3.org/1999/xlink" x="0px" y="0px"
	 width="260px" height="260px" viewBox="0 0 260 260" enable-background="new 0 0 260 260" xml:space="preserve">
<g>
	<path fill="#3FB4E5" d="M160,80c0-5.531-4.477-10-10-10h-40c-5.523,0-10,4.469-10,10v10v20v10c0,5.531,4.477,10,10,10h40
		c5.523,0,10-4.469,10-10v-10V90V80z M150,120h-40V80h40V120z"/>
	<rect x="110" y="80" fill="none" width="40" height="20"/>
	<polygon fill="none" points="90,100 98,100 100,100 100,70 160,70 160,100 163,100 170,100 170,60 90,60 	"/>
	<rect x="160" y="120" fill="none" width="10" height="10"/>
	<path fill="none" d="M80,149h100v11v10h10v-20c0-5.531-4.477-10-10-10H80c-5.523,0-10,4.469-10,10v20h10v-10V149z"/>
	<rect x="180" y="120" fill="none" width="10" height="10"/>
	<path fill="#25336C" d="M180,100V60c0-5.531-4.477-10-10-10H90c-5.523,0-10,4.469-10,10v40c-16.57,0-30,13.43-30,30v30
		c0,16.57,13.43,30,30,30v-20H70v-20c0-5.531,4.477-10,10-10h100c5.523,0,10,4.469,10,10v20h-10v20c16.57,0,30-13.43,30-30v-30
		C210,113.43,196.57,100,180,100z M170,130h-10v-10h10V130z M170,100h-7h-3h-10h-40h-10h-2h-8V60h80V100z M190,130h-10v-10h10V130z"
		/>
	<path fill="#3FB4E5" d="M180,160c0-5.531-4.477-10-10-10H90c-5.523,0-10,4.469-10,10v10v20v10c0,5.531,4.477,10,10,10h80
		c5.523,0,10-4.469,10-10v-10v-20V160z M170,200H90v-40h80V200z"/>
	<path fill="#E73C50" d="M96.5,171h65c1.381,0,2.5-1.119,2.5-2.5s-1.119-2.5-2.5-2.5h-65c-1.381,0-2.5,1.119-2.5,2.5
		S95.119,171,96.5,171z"/>
	<path fill="#E73C50" d="M96.5,180h65c1.381,0,2.5-1.119,2.5-2.5s-1.119-2.5-2.5-2.5h-65c-1.381,0-2.5,1.119-2.5,2.5
		S95.119,180,96.5,180z"/>
	<path fill="#E73C50" d="M96.5,189h45c1.381,0,2.5-1.119,2.5-2.5s-1.119-2.5-2.5-2.5h-45c-1.381,0-2.5,1.119-2.5,2.5
		S95.119,189,96.5,189z"/>
</g>
</svg>
