<?xml version="1.0" encoding="utf-8"?>
<!-- Generator: Adobe Illustrator 16.0.0, SVG Export Plug-In . SVG Version: 6.00 Build 0)  -->
<!DOCTYPE svg PUBLIC "-//W3C//DTD SVG 1.1//EN" "http://www.w3.org/Graphics/SVG/1.1/DTD/svg11.dtd">
<svg version="1.1" id="Layer_1" xmlns="http://www.w3.org/2000/svg" xmlns:xlink="http://www.w3.org/1999/xlink" x="0px" y="0px"
	 width="260px" height="260px" viewBox="0 0 260 260" enable-background="new 0 0 260 260" xml:space="preserve">
<g>
	<path fill-rule="evenodd" clip-rule="evenodd" fill="#E73C50" d="M178.066,141.09l-58.38,60.514l-58.38-60.514
		c-13.367-13.373-13.367-35.051,0-48.418c13.373-13.373,35.044-13.373,48.417,0l9.963,12.104l9.963-12.104
		c13.373-13.373,35.044-13.373,48.417,0C191.434,106.039,191.434,127.717,178.066,141.09z M141.752,104.775l-22.065,24.205
		l-22.066-24.205c-6.687-6.688-17.525-6.688-24.212,0c-6.68,6.68-6.68,17.525,0,24.205l46.278,48.418l46.277-48.418
		c6.68-6.68,6.68-17.525,0-24.205C159.277,98.088,148.438,98.088,141.752,104.775z"/>
	<path fill-rule="evenodd" clip-rule="evenodd" fill="#3FB4E5" d="M203.386,79.73h-5.334v5.334c0,2.949-2.383,5.332-5.333,5.332
		s-5.333-2.383-5.333-5.332V79.73h-5.333c-2.95,0-5.333-2.383-5.333-5.334c0-2.949,2.383-5.332,5.333-5.332h5.333V63.73
		c0-2.951,2.383-5.334,5.333-5.334s5.333,2.383,5.333,5.334v5.334h5.334c2.95,0,5.333,2.383,5.333,5.332
		C208.719,77.348,206.336,79.73,203.386,79.73z"/>
</g>
</svg>
