<?xml version="1.0" encoding="utf-8"?>
<!-- Generator: Adobe Illustrator 16.0.0, SVG Export Plug-In . SVG Version: 6.00 Build 0)  -->
<!DOCTYPE svg PUBLIC "-//W3C//DTD SVG 1.1//EN" "http://www.w3.org/Graphics/SVG/1.1/DTD/svg11.dtd">
<svg version="1.1" id="Layer_1" xmlns="http://www.w3.org/2000/svg" xmlns:xlink="http://www.w3.org/1999/xlink" x="0px" y="0px"
	 width="260px" height="260px" viewBox="0 0 260 260" enable-background="new 0 0 260 260" xml:space="preserve">
<g>
	<path fill-rule="evenodd" clip-rule="evenodd" fill="#25336C" d="M200.013,114.969h-40c-5.531,0-10-4.469-10-10v-40
		c0-5.516,4.469-10,10-10h40c5.531,0,10,4.484,10,10v40C210.013,110.5,205.544,114.969,200.013,114.969z"/>
	<rect x="158.013" y="62.969" fill-rule="evenodd" clip-rule="evenodd" fill="#FFFFFF" width="44" height="44"/>
	<rect x="130.013" y="74.969" fill-rule="evenodd" clip-rule="evenodd" fill="#3FB4E5" width="10" height="20"/>
	<rect x="110.013" y="74.969" fill-rule="evenodd" clip-rule="evenodd" fill="#3FB4E5" width="10" height="20"/>
	<path fill-rule="evenodd" clip-rule="evenodd" fill="#3FB4E5" d="M90.013,94.969v17.922c-3.453,3.023-9,3.023-12.438-0.039
		L52.583,90.578c-3.461-3.078-3.461-8.07,0-11.148l24.992-22.281c3.438-3.055,8.984-3.07,12.438-0.031v17.852h10v20H90.013
		L90.013,94.969z"/>
	<path fill-rule="evenodd" clip-rule="evenodd" fill="#E73C50" d="M196,72.5c0,1.381-1.119,2.5-2.5,2.5h-27
		c-1.381,0-2.5-1.119-2.5-2.5l0,0c0-1.381,1.119-2.5,2.5-2.5h27C194.881,70,196,71.119,196,72.5L196,72.5z"/>
	<path fill-rule="evenodd" clip-rule="evenodd" fill="#E73C50" d="M196,84.5c0,1.381-1.119,2.5-2.5,2.5h-27
		c-1.381,0-2.5-1.119-2.5-2.5l0,0c0-1.381,1.119-2.5,2.5-2.5h27C194.881,82,196,83.119,196,84.5L196,84.5z"/>
	<path fill-rule="evenodd" clip-rule="evenodd" fill="#25336C" d="M49.987,194.968v-40c0-5.516,4.469-10,10-10h40
		c5.531,0,10,4.484,10,10v40c0,5.531-4.469,10-10,10h-40C54.456,204.968,49.987,200.499,49.987,194.968z"/>
	<rect x="57.987" y="152.968" fill-rule="evenodd" clip-rule="evenodd" fill="#FFFFFF" width="44" height="44"/>
	<rect x="119.987" y="164.968" fill-rule="evenodd" clip-rule="evenodd" fill="#3FB4E5" width="10" height="20"/>
	<rect x="139.987" y="164.968" fill-rule="evenodd" clip-rule="evenodd" fill="#3FB4E5" width="10" height="20"/>
	<path fill-rule="evenodd" clip-rule="evenodd" fill="#3FB4E5" d="M169.987,184.968h-10v-20h10v-17.852
		c3.453-3.039,9-3.023,12.438,0.031l24.992,22.281c3.461,3.078,3.461,8.07,0,11.148l-24.992,22.273
		c-3.438,3.062-8.984,3.062-12.438,0.039V184.968L169.987,184.968z"/>
	<path fill-rule="evenodd" clip-rule="evenodd" fill="#E73C50" d="M96,162.5c0,1.381-1.119,2.5-2.5,2.5h-27
		c-1.381,0-2.5-1.119-2.5-2.5l0,0c0-1.381,1.119-2.5,2.5-2.5h27C94.881,160,96,161.119,96,162.5L96,162.5z"/>
	<path fill-rule="evenodd" clip-rule="evenodd" fill="#E73C50" d="M96,174.5c0,1.381-1.119,2.5-2.5,2.5h-27
		c-1.381,0-2.5-1.119-2.5-2.5l0,0c0-1.381,1.119-2.5,2.5-2.5h27C94.881,172,96,173.119,96,174.5L96,174.5z"/>
	<path fill-rule="evenodd" clip-rule="evenodd" fill="#E73C50" d="M96,186.5c0,1.381-1.119,2.5-2.5,2.5h-27
		c-1.381,0-2.5-1.119-2.5-2.5l0,0c0-1.381,1.119-2.5,2.5-2.5h27C94.881,184,96,185.119,96,186.5L96,186.5z"/>
</g>
</svg>
