<?xml version="1.0" encoding="utf-8"?>
<!-- Generator: Adobe Illustrator 16.0.0, SVG Export Plug-In . SVG Version: 6.00 Build 0)  -->
<!DOCTYPE svg PUBLIC "-//W3C//DTD SVG 1.1//EN" "http://www.w3.org/Graphics/SVG/1.1/DTD/svg11.dtd">
<svg version="1.1" id="Layer_1" xmlns="http://www.w3.org/2000/svg" xmlns:xlink="http://www.w3.org/1999/xlink" x="0px" y="0px"
	 width="260px" height="260px" viewBox="0 0 260 260" enable-background="new 0 0 260 260" xml:space="preserve">
<g>
	<path fill="#25336C" d="M83.145,129.559c-5.279,0-9.6,4.32-9.6,9.601v64.059c0,5.279,4.32,9.6,9.6,9.6h91.71
		c5.279,0,9.6-4.32,9.6-9.6v-64.059c0-5.28-4.32-9.601-9.6-9.601H83.145z M175.201,193.965c0,5.28-4.32,9.601-9.601,9.601H92.399
		c-5.28,0-9.601-4.32-9.601-9.601v-45.554c0-5.28,4.32-9.601,9.601-9.601h73.201c5.28,0,9.601,4.32,9.601,9.601V193.965z"/>
	<path fill="#25336C" d="M99.42,183.382c1.58,1.284,3.903,1.043,5.188-0.538v-0.003l3.76-4.631l5.987,8.105
		c0.795,1.077,2.116,1.639,3.45,1.464c1.329-0.174,2.458-1.062,2.947-2.31l5.69-14.518l8.25,19.432
		c0.578,1.372,1.916,2.248,3.396,2.248c0.067,0,0.137-0.002,0.206-0.006c1.556-0.09,2.883-1.14,3.327-2.631l7.853-26.426
		l3.461,7.113c0.891,1.833,3.098,2.595,4.93,1.703c1.831-0.89,2.596-3.1,1.705-4.93l-7.61-15.638
		c-0.667-1.372-2.101-2.186-3.617-2.062c-1.522,0.125-2.799,1.162-3.234,2.625l-7.638,25.682l-7.769-18.31
		c-0.586-1.384-1.942-2.271-3.448-2.248c-1.5,0.02-2.832,0.942-3.38,2.343l-6.552,16.721l-4.853-6.571
		c-0.683-0.918-1.739-1.465-2.881-1.493c-1.147-0.027-2.228,0.472-2.949,1.363l-6.759,8.326
		C97.598,179.773,97.841,182.098,99.42,183.382z"/>
</g>
<g>
	<circle fill="#3FB4E5" cx="35.002" cy="115.001" r="9"/>
	<circle fill="#3FB4E5" cx="60.002" cy="75.001" r="9"/>
	<circle fill="#3FB4E5" cx="86.002" cy="100.001" r="9"/>
	<circle fill="#3FB4E5" cx="111.002" cy="61.001" r="9"/>
	<g>
		
			<rect x="45.002" y="71.416" transform="matrix(0.848 0.53 -0.53 0.848 57.5752 -10.7353)" fill="#3FB4E5" width="5" height="47.17"/>
	</g>
	<g>
		
			<rect x="96.002" y="57.416" transform="matrix(0.848 0.53 -0.53 0.848 57.9079 -39.8953)" fill="#3FB4E5" width="5" height="47.17"/>
	</g>
	<g>
		
			<rect x="54.617" y="85.501" transform="matrix(0.7071 0.7071 -0.7071 0.7071 83.6079 -25.8453)" fill="#3FB4E5" width="36.77" height="4.999"/>
	</g>
</g>
<g>
	<g>
		<g>
			<g>
				<path fill-rule="evenodd" clip-rule="evenodd" fill="#E73C50" d="M183.375,70.766h-8.01c-1.107,0-2.004,0.896-2.004,2.004
					v22.066h12.016V72.77C185.377,71.662,184.48,70.766,183.375,70.766z M164.355,80.787h-8.01c-1.109,0-2.004,0.895-2.004,2.004
					v12.045h12.016V82.791C166.357,81.682,165.459,80.787,164.355,80.787z M202.395,58.807h-8.01c-1.109,0-2.004,0.896-2.004,2.004
					v34.025h12.018V60.811C204.398,59.703,203.498,58.807,202.395,58.807z M221.414,70.826h-8.01c-1.107,0-2.002,0.896-2.002,2.004
					v22.006h12.016V72.83C223.418,71.723,222.52,70.826,221.414,70.826z"/>
			</g>
		</g>
	</g>
	<polygon fill-rule="evenodd" clip-rule="evenodd" fill="#E73C50" points="147,101 147,46 140,46 140,101 140,108 147,108 231,108 
		231,101 	"/>
</g>
</svg>
