<?xml version="1.0" encoding="utf-8"?>
<!-- Generator: Adobe Illustrator 16.0.0, SVG Export Plug-In . SVG Version: 6.00 Build 0)  -->
<!DOCTYPE svg PUBLIC "-//W3C//DTD SVG 1.1//EN" "http://www.w3.org/Graphics/SVG/1.1/DTD/svg11.dtd">
<svg version="1.1" id="Layer_1" xmlns="http://www.w3.org/2000/svg" xmlns:xlink="http://www.w3.org/1999/xlink" x="0px" y="0px"
	 width="260px" height="260px" viewBox="0 0 260 260" enable-background="new 0 0 260 260" xml:space="preserve">
<path fill-rule="evenodd" clip-rule="evenodd" fill="#25336C" d="M173.793,62.755 M101.379,219.66H71.718l0,0l0,0
	c-12.38,0-22.414-10.035-22.414-22.414V62.755c0-12.381,10.034-22.415,22.414-22.415h25.661v10.943H68.718
	c-4.133,0-8.471,4.345-8.471,8.472v140.491c0,4.125,4.338,8.471,8.471,8.471h32.661"/>
<path fill-rule="evenodd" clip-rule="evenodd" fill="#25336C" d="M196.793,62.755 M124.379,219.66H94.718l0,0l0,0
	c-12.38,0-22.414-10.035-22.414-22.414V62.755c0-12.381,10.034-22.415,22.414-22.415h29.661v10.943H91.718
	c-4.133,0-8.471,4.345-8.471,8.472v140.491c0,4.125,4.338,8.471,8.471,8.471h32.661"/>
<g>
	<path fill="#E73C50" d="M195,154c0,1.1-0.9,2-2,2h-49c-1.1,0-2-0.9-2-2v-2c0-1.1,0.9-2,2-2h49c1.1,0,2,0.9,2,2V154z"/>
	<path fill="#E73C50" d="M155,170c0,1.1-0.9,2-2,2h-30c-1.1,0-2-0.9-2-2v-2c0-1.1,0.9-2,2-2h30c1.1,0,2,0.9,2,2V170z"/>
	<path fill="#E73C50" d="M155,182c0,1.1-0.9,2-2,2h-30c-1.1,0-2-0.9-2-2v-2c0-1.1,0.9-2,2-2h30c1.1,0,2,0.9,2,2V182z"/>
	<path fill="#E73C50" d="M155,194c0,1.1-0.9,2-2,2h-30c-1.1,0-2-0.9-2-2v-2c0-1.1,0.9-2,2-2h30c1.1,0,2,0.9,2,2V194z"/>
	<path fill="#E73C50" d="M155,170c0,1.1-0.9,2-2,2h-30c-1.1,0-2-0.9-2-2v-2c0-1.1,0.9-2,2-2h30c1.1,0,2,0.9,2,2V170z"/>
	<path fill="#E73C50" d="M155,182c0,1.1-0.9,2-2,2h-30c-1.1,0-2-0.9-2-2v-2c0-1.1,0.9-2,2-2h30c1.1,0,2,0.9,2,2V182z"/>
	<path fill="#E73C50" d="M155,194c0,1.1-0.9,2-2,2h-30c-1.1,0-2-0.9-2-2v-2c0-1.1,0.9-2,2-2h30c1.1,0,2,0.9,2,2V194z"/>
	<path fill="#E73C50" d="M195,170c0,1.1-0.9,2-2,2h-30c-1.1,0-2-0.9-2-2v-2c0-1.1,0.9-2,2-2h30c1.1,0,2,0.9,2,2V170z"/>
	<path fill="#E73C50" d="M195,182c0,1.1-0.9,2-2,2h-30c-1.1,0-2-0.9-2-2v-2c0-1.1,0.9-2,2-2h30c1.1,0,2,0.9,2,2V182z"/>
	<path fill="#E73C50" d="M188,194c0,1.1-0.9,2-2,2h-23c-1.1,0-2-0.9-2-2v-2c0-1.1,0.9-2,2-2h23c1.1,0,2,0.9,2,2V194z"/>
	<path fill="#E73C50" d="M195,140c0,1.1-0.9,2-2,2h-30c-1.1,0-2-0.9-2-2v-2c0-1.1,0.9-2,2-2h30c1.1,0,2,0.9,2,2V140z"/>
	<path fill="#E73C50" d="M195,126c0,1.1-0.9,2-2,2h-30c-1.1,0-2-0.9-2-2v-2c0-1.1,0.9-2,2-2h30c1.1,0,2,0.9,2,2V126z"/>
	<path fill="#E73C50" d="M195,113c0,1.1-0.9,2-2,2h-49c-1.1,0-2-0.9-2-2v-2c0-1.1,0.9-2,2-2h49c1.1,0,2,0.9,2,2V113z"/>
	<g>
		<path fill="#E73C50" d="M122,63c-1.1,0-2,0.9-2,2v34c0,1.1,0.9,2,2,2h16c1.1,0,2.45,0,3,0s1.9,0,3,0h49c1.1,0,2-0.9,2-2V69.738
			c0-1.1,0-2.225,0-2.5s0-1.341,0-2.369c0-1.028-0.9-1.869-2-1.869H122z M191,67.369c0,0.203,0,1.269,0,2.369V95c0,1.1-0.9,2-2,2
			h-45c-1.1,0-2.45,0-3,0s-1.9,0-3,0h-12c-1.1,0-2-0.9-2-2V69c0-1.1,0.9-2,2-2h63C190.1,67,191,67.166,191,67.369z"/>
		<polygon fill="#E73C50" points="174.771,78.28 170.094,79.433 166.044,73.511 152.951,88.09 145.938,84.69 134.95,94 181.005,94 
					"/>
		<circle fill="#E73C50" cx="135.827" cy="77.159" r="4.172"/>
	</g>
</g>
<path fill-rule="evenodd" clip-rule="evenodd" fill="#3FB4E5" d="M147.878,127.6c1.76,1.32,1.761,3.479,0,4.8l-23.487,17.616
	c-1.76,1.32-3.2,0.601-3.2-1.6v-6.943c0-2.2-0.003-1.879-0.003-4H95.305c-2.2,0-4-1.8-4-4v-6.944c0-2.2,1.8-4,4-4h25.883
	c0-1.998,0.003-1.8,0.003-4v-6.944c0-2.2,1.44-2.92,3.2-1.6L147.878,127.6z"/>
<path fill-rule="evenodd" clip-rule="evenodd" fill="#25336C" d="M197.38,219.66L197.38,219.66L197.38,219.66h-79.661
	c-12.38,0-22.414-10.035-22.414-22.414v-44.83h10.942v47.83c0,4.125,4.34,8.471,8.472,8.471h85.661c4.133,0,8.471-4.346,8.471-8.471
	V59.755c0-4.127-4.338-8.472-8.471-8.472h-85.661c-4.132,0-8.472,4.345-8.472,8.472v47.83H95.305v-44.83l0,0
	c0-12.381,10.034-22.415,22.414-22.415h79.661c12.38,0,22.414,10.034,22.414,22.415v134.491
	C219.794,209.625,209.76,219.66,197.38,219.66z"/>
</svg>
