<?xml version="1.0" encoding="utf-8"?>
<!-- Generator: Adobe Illustrator 16.0.0, SVG Export Plug-In . SVG Version: 6.00 Build 0)  -->
<!DOCTYPE svg PUBLIC "-//W3C//DTD SVG 1.1//EN" "http://www.w3.org/Graphics/SVG/1.1/DTD/svg11.dtd">
<svg version="1.1" id="Layer_1" xmlns="http://www.w3.org/2000/svg" xmlns:xlink="http://www.w3.org/1999/xlink" x="0px" y="0px"
	 width="260px" height="260px" viewBox="0 0 260 260" enable-background="new 0 0 260 260" xml:space="preserve">
<g>
	<path fill-rule="evenodd" clip-rule="evenodd" fill="#E73C50" d="M128.5,85.5c0,1.104-0.896,2-2,2h-26c-1.104,0-2-0.896-2-2v-8
		c0-1.104,0.896-2,2-2h26c1.104,0,2,0.896,2,2V85.5z"/>
	<path fill-rule="evenodd" clip-rule="evenodd" fill="#25336C" d="M180,210H74c-16.57,0-24-7.43-24-24V50h120v10h20l0,0v10h10h10
		v110C210,196.57,196.57,210,180,210z M160,60H60v126c0,5.531,4.469,10,10,10h90V60z M204,76h-14v99c0,2.766-0.234,3-3,3
		s-3-0.234-3-3V66h-14v115c0,8.281,8.719,15,17,15s17-6.719,17-15V76z"/>
	<g>
		<path fill="#3FB4E5" d="M144,80.5h-36.5V74c0-1.104-0.396-1.5-1.5-1.5H82c-1.104,0-2.5,0.396-2.5,1.5v6.5H76
			c-2.209,0-4.5,1.291-4.5,3.5v33c0,2.209,2.291,4.5,4.5,4.5h68c2.209,0,3.5-2.291,3.5-4.5V84C147.5,81.791,146.209,80.5,144,80.5z
			 M119.5,106.5c0,1.104-0.896,2-2,2h-34c-1.104,0-2-0.896-2-2v-2c0-1.104,0.896-2,2-2h34c1.104,0,2,0.896,2,2V106.5z M137.5,94.5
			c0,1.104-0.896,2-2,2h-52c-1.104,0-2-0.896-2-2v-2c0-1.104,0.896-2,2-2h52c1.104,0,2,0.896,2,2V94.5z"/>
	</g>
	<path fill-rule="evenodd" clip-rule="evenodd" fill="#3FB4E5" d="M120.5,148.5c0,1.104-0.896,2-2,2h-26c-1.104,0-2-0.896-2-2v-8
		c0-1.104,0.896-2,2-2h26c1.104,0,2,0.896,2,2V148.5z"/>
	<g>
		<path fill="#E73C50" d="M71.5,147v33c0,2.209,2.291,4.5,4.5,4.5h68c2.209,0,3.5-2.291,3.5-4.5v-33c0-2.209-1.291-3.5-3.5-3.5h-4.5
			V137c0-1.104-0.396-1.5-1.5-1.5h-24c-1.104,0-2.5,0.396-2.5,1.5v6.5H76C73.791,143.5,71.5,144.791,71.5,147z M119.5,169.5
			c0,1.104-0.896,2-2,2h-34c-1.104,0-2-0.896-2-2v-2c0-1.104,0.896-2,2-2h34c1.104,0,2,0.896,2,2V169.5z M137.5,157.5
			c0,1.104-0.896,2-2,2h-52c-1.104,0-2-0.896-2-2v-2c0-1.104,0.896-2,2-2h52c1.104,0,2,0.896,2,2V157.5z"/>
	</g>
</g>
</svg>
