<?xml version="1.0" encoding="utf-8"?>
<!-- Generator: Adobe Illustrator 16.0.0, SVG Export Plug-In . SVG Version: 6.00 Build 0)  -->
<!DOCTYPE svg PUBLIC "-//W3C//DTD SVG 1.1//EN" "http://www.w3.org/Graphics/SVG/1.1/DTD/svg11.dtd">
<svg version="1.1" id="Layer_1" xmlns="http://www.w3.org/2000/svg" xmlns:xlink="http://www.w3.org/1999/xlink" x="0px" y="0px"
	 width="260px" height="260px" viewBox="0 0 260 260" enable-background="new 0 0 260 260" xml:space="preserve">
<g>
	<path fill="#E73C50" d="M107.899,177.789l54.699-27.35c5.167-2.582,5.167-6.807,0-9.389l-54.699-27.35
		c-5.167-2.584-9.39,0.033-9.39,5.803v52.486C98.51,177.762,102.732,180.373,107.899,177.789z"/>
	<path fill="#25336C" d="M198.232,46.023H61.771c-8.683,0-15.746,7.066-15.746,15.746V198.23c0,8.684,7.063,15.746,15.746,15.746
		h136.462c8.68,0,15.743-7.062,15.743-15.746V61.77C213.975,53.09,206.912,46.023,198.232,46.023z M150.995,56.521l10.498,20.996
		h-20.996l-10.496-20.996H150.995z M109.008,56.521l10.495,20.996H98.51L88.012,56.521H109.008z M56.523,61.77
		c0-2.889,2.355-5.248,5.248-5.248h5.248l10.498,20.996H56.523V61.77z M203.48,198.23c0,2.893-2.358,5.248-5.248,5.248H61.771
		c-2.892,0-5.248-2.355-5.248-5.248V88.012H203.48V198.23z M182.487,77.518l-10.499-20.996h20.994l10.498,20.996H182.487z"/>
</g>
</svg>
