<?xml version="1.0" encoding="UTF-8"?>
<!-- Generator: Adobe Illustrator 16.0.0, SVG Export Plug-In . SVG Version: 6.00 Build 0)  -->
<!DOCTYPE svg PUBLIC "-//W3C//DTD SVG 1.1//EN" "http://www.w3.org/Graphics/SVG/1.1/DTD/svg11.dtd">
<svg version="1.1" id="Layer_1" xmlns="http://www.w3.org/2000/svg" xmlns:xlink="http://www.w3.org/1999/xlink" x="0px" y="0px" width="326px" height="198px" viewBox="0 0 326 198" enable-background="new 0 0 326 198" xml:space="preserve">
<g>
	<g>
		<path fill-rule="evenodd" clip-rule="evenodd" fill="#25336C" d="M288.848,172.953c0,0,0-149.818,0-156.886    C288.848,9,281.78,9,281.78,9H48.574c0,0-7.068,0-7.068,7.067c0,7.067,0,156.886,0,156.886H9v9.893c0,0,0,7.066,7.064,7.066    h298.225c7.066,0,7.066-7.066,7.066-7.066v-9.893H288.848z M165.177,13.24c1.952,0,3.534,1.582,3.534,3.534    c0,1.951-1.582,3.533-3.534,3.533c-1.95,0-3.532-1.582-3.532-3.533C161.645,14.822,163.227,13.24,165.177,13.24z M271.888,163.059    H58.467V25.96h213.421V163.059z"/>
	</g>
</g>
<path fill="#BBBBBB" d="M268,45c0,2.209-1.791,4-4,4H67c-2.209,0-4-1.791-4-4V34c0-2.209,1.791-4,4-4h197c2.209,0,4,1.791,4,4V45z"/>
<path fill="#BBBBBB" d="M107,57v98H66V57H107 M107,53H66c-2.209,0-4,1.791-4,4v98c0,2.209,1.791,4,4,4h41c2.209,0,4-1.791,4-4V57  C111,54.791,109.209,53,107,53L107,53z"/>
<path fill="#BBBBBB" d="M233,57v98H120V57H233 M233,53H120c-2.209,0-4,1.791-4,4v98c0,2.209,1.791,4,4,4h113c2.209,0,4-1.791,4-4V57  C237,54.791,235.209,53,233,53L233,53z"/>
<g>
	<path fill="#E73C50" d="M223,129c0,1.104-0.896,2-2,2h-89c-1.104,0-2-0.896-2-2v-2c0-1.104,0.896-2,2-2h89c1.104,0,2,0.896,2,2V129   z"/>
	<path fill="#E73C50" d="M173,142c0,1.104-0.896,2-2,2h-39c-1.104,0-2-0.896-2-2v-2c0-1.104,0.896-2,2-2h39c1.104,0,2,0.896,2,2V142   z"/>
	<path fill="#E73C50" d="M223,116c0,1.104-0.896,2-2,2h-89c-1.104,0-2-0.896-2-2v-2c0-1.104,0.896-2,2-2h89c1.104,0,2,0.896,2,2V116   z"/>
	<g>
		<path fill="#E73C50" d="M136.5,66c-1.1,0-2,0.9-2,2v34c0,1.1,0.9,2,2,2h16c1.1,0,2.45,0,3,0s1.9,0,3,0h57c1.1,0,2-0.9,2-2V72.738    c0-1.1,0-2.225,0-2.5s0-1.341,0-2.369c0-1.028-0.9-1.869-2-1.869H136.5z M213.5,72.369c0,0.203,0,0.269,0,1.369V98    c0,1.1-0.9,2-2,2h-53c-1.1,0-2.45,0-3,0s-1.9,0-3,0h-12c-1.1,0-2-0.9-2-2V72c0-1.1,0.9-2,2-2h71    C212.6,70,213.5,70.906,213.5,72.369z"/>
		<polygon fill="#E73C50" points="198.351,81.28 192.605,82.433 187.633,76.511 171.555,91.09 162.943,87.69 149.45,97 206.005,97       "/>
		<circle fill="#E73C50" cx="150.327" cy="80.159" r="4.173"/>
	</g>
	<path fill="#E73C50" d="M223,142c0,1.104-0.896,2-2,2h-39c-1.104,0-2-0.896-2-2v-2c0-1.104,0.896-2,2-2h39c1.104,0,2,0.896,2,2V142   z"/>
</g>
<g>
	<path fill="#3FB4E5" d="M268,155c0,2.209-1.791,4-4,4h-19c-2.209,0-4-1.791-4-4V57c0-2.209,1.791-4,4-4h19c2.209,0,4,1.791,4,4V155   z"/>
</g>
<g>
	<path fill="#E73C50" d="M101,145c0,2.209-1.791,4-4,4H76c-2.209,0-4-1.791-4-4v-31c0-2.209,1.791-4,4-4h21c2.209,0,4,1.791,4,4V145   z"/>
	<path fill="#FFFFFF" d="M97,116c0,1.104-0.896,2-2,2H78c-1.104,0-2-0.896-2-2l0,0c0-1.104,0.896-2,2-2h17   C96.104,114,97,114.896,97,116L97,116z"/>
	<path fill="#FFFFFF" d="M97,125c0,1.104-0.896,2-2,2H78c-1.104,0-2-0.896-2-2l0,0c0-1.104,0.896-2,2-2h17   C96.104,123,97,123.896,97,125L97,125z"/>
	<path fill="#FFFFFF" d="M97,134c0,1.104-0.896,2-2,2H78c-1.104,0-2-0.896-2-2l0,0c0-1.104,0.896-2,2-2h17   C96.104,132,97,132.896,97,134L97,134z"/>
	<path fill="#FFFFFF" d="M93,143c0,1.104-0.896,2-2,2H78c-1.104,0-2-0.896-2-2l0,0c0-1.104,0.896-2,2-2h13   C92.104,141,93,141.896,93,143L93,143z"/>
</g>
<g>
	<path fill="#E73C50" d="M101,98c0,2.209-1.791,4-4,4H76c-2.209,0-4-1.791-4-4V67c0-2.209,1.791-4,4-4h21c2.209,0,4,1.791,4,4V98z"/>
	<path fill="#FFFFFF" d="M97,78c0,1.104-0.896,2-2,2H78c-1.104,0-2-0.896-2-2v-9c0-1.104,0.896-2,2-2h17c1.104,0,2,0.896,2,2V78z"/>
	<path fill="#FFFFFF" d="M97,87c0,1.104-0.896,2-2,2H78c-1.104,0-2-0.896-2-2l0,0c0-1.104,0.896-2,2-2h17C96.104,85,97,85.896,97,87   L97,87z"/>
	<path fill="#FFFFFF" d="M93,95c0,1.104-0.896,2-2,2H78c-1.104,0-2-0.896-2-2l0,0c0-1.104,0.896-2,2-2h13C92.104,93,93,93.896,93,95   L93,95z"/>
	<polygon fill="#E73C50" points="93.1,72.501 91.455,72.833 90.031,71.136 85.428,75.311 82.962,74.337 79.099,77 95.291,77  "/>
	<circle fill="#E73C50" cx="81.155" cy="70.987" r="2"/>
</g>
<g>
	<polygon fill="#FFFFFF" points="250.534,81.775 249.134,80.651 245,84.594 249.174,88.536 250.573,87.412 247.57,84.594  "/>
	<polygon fill="#FFFFFF" points="259.826,80.651 258.427,81.775 261.431,84.593 258.466,87.412 259.866,88.536 264,84.593  "/>
	<polygon fill="#FFFFFF" points="253.319,89.665 254.935,89.665 257.521,79 255.905,79  "/>
</g>
<path fill="#FFFFFF" d="M260.305,139c-2.804,0.056-6.051,0.541-8.853,1.458c-0.002-0.018,0.01,8.326,0.01,8.326  c-0.507-0.114-1.078-0.048-1.68,0.225c-1.114,0.507-1.722,1.531-1.356,2.288c0.365,0.757,1.563,0.96,2.679,0.454  c1.019-0.547,1.346-1.041,1.38-1.755l0.023-7.23c2.209-0.649,4.547-1.035,6.756-1.154v6.464c-0.512-0.126-1.189-0.062-1.805,0.216  c-1.113,0.507-1.722,1.532-1.356,2.288c0.366,0.757,1.564,0.959,2.68,0.454c0.792-0.36,1.425-0.983,1.537-1.585  C260.319,149.447,260.293,138.986,260.305,139z"/>
<g>
	<polygon fill-rule="evenodd" clip-rule="evenodd" fill="#FFFFFF" points="252,121.226 257.685,124.507 252,127.789  "/>
	<g>
		<path fill="#FFFFFF" d="M254.5,132c-4.137,0-7.5-3.365-7.5-7.5s3.363-7.5,7.5-7.5s7.5,3.365,7.5,7.5S258.637,132,254.5,132z     M254.5,117.833c-3.676,0-6.667,2.991-6.667,6.667s2.991,6.667,6.667,6.667s6.667-2.991,6.667-6.667    S258.176,117.833,254.5,117.833z"/>
	</g>
</g>
<g>
	<g>
		<polygon fill="#FFFFFF" points="248.005,106.77 260.396,106.77 258.719,101.748 257.461,102.134 256.371,100.239 252.849,104.928     250.962,103.807   "/>
	</g>
	<path fill="#FFFFFF" d="M263,98v11h-17V98H263 M264,97h-19v13h19V97L264,97z"/>
</g>
<g>
	<path fill="#FFFFFF" d="M254.629,65.173c0.467-0.059,0.8-0.132,1.001-0.22c0.36-0.152,0.54-0.39,0.54-0.712   c0-0.393-0.138-0.664-0.414-0.813s-0.682-0.224-1.217-0.224c-0.6,0-1.024,0.146-1.273,0.439c-0.179,0.217-0.297,0.51-0.356,0.879   h-2.417c0.053-0.838,0.288-1.526,0.706-2.065c0.665-0.844,1.807-1.266,3.425-1.266c1.054,0,1.989,0.208,2.808,0.624   c0.817,0.416,1.227,1.201,1.227,2.355v4.395c0,0.305,0.006,0.674,0.018,1.107c0.018,0.328,0.067,0.551,0.149,0.668   s0.205,0.214,0.369,0.29V71h-2.725c-0.076-0.193-0.129-0.375-0.158-0.545s-0.053-0.363-0.07-0.58   c-0.348,0.375-0.749,0.694-1.202,0.958c-0.542,0.311-1.155,0.466-1.839,0.466c-0.872,0-1.593-0.248-2.161-0.743   c-0.569-0.495-0.854-1.197-0.854-2.105c0-1.178,0.457-2.03,1.372-2.558c0.502-0.287,1.24-0.492,2.214-0.615L254.629,65.173z    M256.161,66.342c-0.16,0.1-0.322,0.18-0.485,0.242c-0.164,0.062-0.388,0.119-0.673,0.171l-0.57,0.105   c-0.534,0.094-0.918,0.208-1.151,0.343c-0.395,0.229-0.592,0.583-0.592,1.063c0,0.428,0.12,0.737,0.361,0.927   s0.534,0.286,0.879,0.286c0.548,0,1.052-0.158,1.513-0.475s0.701-0.894,0.719-1.731V66.342z"/>
</g>
<rect x="72" y="37" fill="#F5F5F5" width="81" height="4"/>
<rect x="182" y="37" fill="#F5F5F5" width="18" height="4"/>
<rect x="212" y="37" fill="#F5F5F5" width="18" height="4"/>
<rect x="242" y="37" fill="#F5F5F5" width="18" height="4"/>
</svg>