<?xml version="1.0" encoding="UTF-8"?>
<!-- Generator: Adobe Illustrator 16.0.0, SVG Export Plug-In . SVG Version: 6.00 Build 0)  -->
<!DOCTYPE svg PUBLIC "-//W3C//DTD SVG 1.1//EN" "http://www.w3.org/Graphics/SVG/1.1/DTD/svg11.dtd">
<svg version="1.1" id="Layer_1" xmlns="http://www.w3.org/2000/svg" xmlns:xlink="http://www.w3.org/1999/xlink" x="0px" y="0px" width="151px" height="198px" viewBox="0 0 151 198" enable-background="new 0 0 151 198" xml:space="preserve">
<g>
	<g>
		<g>
			<path fill="none" d="M130,21.26c0-1.248-1.012-2.26-2.26-2.26H19.26C18.012,19,17,20.012,17,21.26v148.48     c0,1.248,1.012,2.26,2.26,2.26h108.48c1.248,0,2.26-1.012,2.26-2.26V21.26z"/>
			<g>
				<path fill="none" d="M128.04,19H19.561C18.314,19,17,19.312,17,20.56V164.07c0,1.245,1.314,2.93,2.561,2.93H128.04      c1.246,0,1.96-1.685,1.96-2.93V20.56C130,19.312,129.286,19,128.04,19z"/>
				<circle fill="none" cx="73.235" cy="177.064" r="3.955"/>
				<path fill="#25336C" d="M142,21.56C142,14.07,135.93,8,128.44,8H19.56C12.07,8,6,14.07,6,21.56V175.44      C6,182.93,12.07,189,19.56,189H128.44c7.489,0,13.56-6.07,13.56-13.56V21.56z M73.235,181.02c-2.186,0-3.955-1.771-3.955-3.955      c0-2.184,1.77-3.955,3.955-3.955c2.185,0,3.954,1.771,3.954,3.955C77.189,179.249,75.42,181.02,73.235,181.02z M130,164.07      c0,1.245-0.714,2.93-1.96,2.93H19.561c-1.246,0-2.561-1.685-2.561-2.93V20.56c0-1.247,1.314-1.56,2.561-1.56H128.04      c1.246,0,1.96,0.312,1.96,1.56V164.07z"/>
			</g>
		</g>
	</g>
	<g>
		<path fill="#E73C50" d="M120,92c0,1.104-0.896,2-2,2H29c-1.104,0-2-0.896-2-2v-2c0-1.104,0.896-2,2-2h89c1.104,0,2,0.896,2,2V92z"/>
		<path fill="#E73C50" d="M70,105c0,1.104-0.896,2-2,2H29c-1.104,0-2-0.896-2-2v-2c0-1.104,0.896-2,2-2h39c1.104,0,2,0.896,2,2V105z    "/>
		<path fill="#E73C50" d="M120,79c0,1.104-0.896,2-2,2H29c-1.104,0-2-0.896-2-2v-2c0-1.104,0.896-2,2-2h89c1.104,0,2,0.896,2,2V79z"/>
		<g>
			<path fill="#E73C50" d="M33.5,29c-1.1,0-2,0.9-2,2v34c0,1.1,0.9,2,2,2h16c1.1,0,2.45,0,3,0s1.9,0,3,0h57c1.1,0,2-0.9,2-2V35.738     c0-1.1,0-2.225,0-2.5s0-1.341,0-2.369c0-1.028-0.9-1.869-2-1.869H33.5z M110.5,35.369c0,0.203,0,0.269,0,1.369V61     c0,1.1-0.9,2-2,2h-53c-1.1,0-2.45,0-3,0s-1.9,0-3,0h-12c-1.1,0-2-0.9-2-2V35c0-1.1,0.9-2,2-2h71     C109.6,33,110.5,33.906,110.5,35.369z"/>
			<polygon fill="#E73C50" points="95.351,44.28 89.605,45.433 84.633,39.511 68.555,54.09 59.943,50.69 46.45,60 103.005,60    "/>
			<circle fill="#E73C50" cx="47.327" cy="43.159" r="4.173"/>
		</g>
		<path fill="#E73C50" d="M70,117c0,1.104-0.896,2-2,2H29c-1.104,0-2-0.896-2-2v-2c0-1.104,0.896-2,2-2h39c1.104,0,2,0.896,2,2V117z    "/>
		<path fill="#E73C50" d="M70,130c0,1.104-0.896,2-2,2H29c-1.104,0-2-0.896-2-2v-2c0-1.104,0.896-2,2-2h39c1.104,0,2,0.896,2,2V130z    "/>
		<path fill="#E73C50" d="M120,105c0,1.104-0.896,2-2,2H79c-1.104,0-2-0.896-2-2v-2c0-1.104,0.896-2,2-2h39c1.104,0,2,0.896,2,2V105    z"/>
		<path fill="#E73C50" d="M120,117c0,1.104-0.896,2-2,2H79c-1.104,0-2-0.896-2-2v-2c0-1.104,0.896-2,2-2h39c1.104,0,2,0.896,2,2V117    z"/>
		<path fill="#E73C50" d="M112,130c0,1.104-0.896,2-2,2H79c-1.104,0-2-0.896-2-2v-2c0-1.104,0.896-2,2-2h31c1.104,0,2,0.896,2,2V130    z"/>
		<path fill="#E73C50" d="M100,155c0,1.104-0.896,2-2,2H29c-1.104,0-2-0.896-2-2v-2c0-1.104,0.896-2,2-2h69c1.104,0,2,0.896,2,2V155    z"/>
		<path fill="#E73C50" d="M120,142c0,1.104-0.896,2-2,2H29c-1.104,0-2-0.896-2-2v-2c0-1.104,0.896-2,2-2h89c1.104,0,2,0.896,2,2V142    z"/>
	</g>
</g>
</svg>